<svg width="295" height="180" viewBox="0 0 295 180" fill="none" xmlns="http://www.w3.org/2000/svg">
<g filter="url(#filter0_i_11115_5248)">
<rect width="295" height="180" rx="12" fill="white"/>
<rect x="0.5" y="0.5" width="294" height="179" rx="11.5" stroke="#F5F5F5"/>
<rect x="25.9519" y="118" width="243.681" height="41.5759" rx="5.68353" fill="#212121"/>
<path d="M115.28 138.812C115.114 138.812 114.982 138.752 114.884 138.634C114.785 138.516 114.756 138.377 114.795 138.22C114.842 138.022 114.905 137.833 114.984 137.651C115.063 137.47 115.154 137.292 115.257 137.118C115.335 136.984 115.452 136.909 115.606 136.893C115.76 136.878 115.896 136.925 116.014 137.035C116.085 137.107 116.129 137.195 116.145 137.302C116.16 137.409 116.141 137.505 116.085 137.592C116.006 137.726 115.937 137.866 115.878 138.013C115.819 138.159 115.77 138.307 115.73 138.456C115.706 138.559 115.649 138.644 115.558 138.711C115.467 138.778 115.375 138.812 115.28 138.812ZM118.454 142.932C118.454 143.106 118.394 143.24 118.276 143.335C118.158 143.429 118.019 143.457 117.861 143.418C117.672 143.362 117.487 143.297 117.305 143.222C117.123 143.148 116.942 143.059 116.76 142.956C116.626 142.877 116.551 142.761 116.535 142.607C116.52 142.453 116.567 142.317 116.677 142.198C116.748 142.127 116.837 142.084 116.944 142.068C117.051 142.052 117.147 142.072 117.234 142.127C117.368 142.206 117.508 142.275 117.655 142.334C117.801 142.394 117.949 142.443 118.098 142.482C118.201 142.506 118.286 142.563 118.353 142.654C118.42 142.745 118.454 142.838 118.454 142.932ZM116.014 141.535C115.896 141.645 115.76 141.693 115.606 141.677C115.452 141.661 115.336 141.586 115.257 141.452C115.154 141.271 115.065 141.089 114.99 140.907C114.916 140.726 114.85 140.54 114.795 140.351C114.755 140.193 114.783 140.055 114.878 139.936C114.972 139.818 115.107 139.759 115.28 139.759C115.383 139.759 115.478 139.792 115.564 139.86C115.651 139.927 115.706 140.012 115.73 140.114C115.77 140.264 115.819 140.412 115.878 140.558C115.937 140.705 116.006 140.845 116.085 140.978C116.141 141.065 116.16 141.164 116.145 141.274C116.129 141.385 116.085 141.472 116.014 141.535ZM119.981 143.406C119.823 143.445 119.687 143.418 119.573 143.323C119.458 143.228 119.401 143.098 119.401 142.932C119.401 142.83 119.434 142.735 119.502 142.648C119.569 142.561 119.654 142.506 119.756 142.482C120.482 142.293 121.078 141.904 121.544 141.316C122.01 140.727 122.243 140.051 122.243 139.285C122.243 138.362 121.921 137.578 121.278 136.935C120.635 136.292 119.851 135.97 118.927 135.97H118.832L119.259 136.396C119.346 136.483 119.389 136.593 119.389 136.728C119.389 136.862 119.346 136.972 119.259 137.059C119.172 137.146 119.061 137.189 118.927 137.189C118.793 137.189 118.682 137.146 118.596 137.059L117.364 135.828C117.317 135.78 117.283 135.729 117.263 135.674C117.243 135.619 117.234 135.559 117.234 135.496C117.234 135.433 117.244 135.374 117.264 135.319C117.283 135.263 117.317 135.212 117.364 135.165L118.584 133.933C118.679 133.846 118.793 133.803 118.927 133.803C119.061 133.803 119.172 133.846 119.259 133.933C119.353 134.028 119.401 134.142 119.401 134.277C119.401 134.411 119.357 134.521 119.271 134.608L118.856 135.023H118.927C120.111 135.023 121.118 135.437 121.947 136.266C122.775 137.095 123.19 138.101 123.19 139.285C123.19 140.264 122.89 141.132 122.29 141.89C121.69 142.648 120.92 143.153 119.981 143.406Z" fill="white"/>
<path d="M139.006 133.785V143.731H137.941V133.785H139.006ZM136.043 134.851C136.043 137.759 134.799 140.29 131.391 141.922L130.836 141.067C133.484 139.807 134.772 138.015 134.977 135.695H131.314V134.851H136.043ZM149.652 139.213V140.068H140.549V139.213H144.579V138.27H141.715V135.739H147.454V134.851H141.693V134.018H148.509V136.516H142.758V137.448H148.708V138.27H145.622V139.213H149.652ZM148.564 140.768V143.654H147.498V141.611H141.571V140.768H148.564ZM156.601 134.862C156.601 136.161 157.511 137.315 159.01 137.77L158.466 138.592C157.356 138.231 156.534 137.498 156.101 136.538C155.668 137.632 154.797 138.464 153.604 138.88L153.082 138.037C154.625 137.526 155.557 136.294 155.557 134.862V134.129H156.601V134.862ZM160.975 133.785V135.883H162.418V136.76H160.975V138.958H159.92V133.785H160.975ZM160.975 139.38V141.844H155.602V142.788H161.319V143.631H154.57V141.067H159.931V140.212H154.547V139.38H160.975ZM171.243 133.785V143.754H170.188V133.785H171.243ZM168.201 134.684V138.314H164.627V140.49C166.236 140.484 167.646 140.412 169.311 140.135L169.411 141.001C167.646 141.3 166.147 141.367 164.394 141.367H163.55V137.471H167.124V135.539H163.539V134.684H168.201ZM181.078 133.785V143.731H180.012V133.785H181.078ZM178.114 134.851C178.114 137.759 176.871 140.29 173.463 141.922L172.908 141.067C175.555 139.807 176.843 138.015 177.048 135.695H173.385V134.851H178.114Z" fill="white"/>
<path d="M89.8843 32.2742V36.8719H91.5394V37.8527H89.8843V43.2597H88.7195V32.2742H89.8843ZM81.1424 40.2681C82.0068 40.2681 83.0122 40.2681 84.0605 40.2313V39.1156C82.8221 38.9439 82.0129 38.196 82.0252 37.1294C82.0129 35.891 83.0796 35.0696 84.649 35.0696C86.2061 35.0696 87.285 35.891 87.2973 37.1294C87.285 38.196 86.4635 38.9501 85.2252 39.1279V40.1823C86.1999 40.1455 87.1808 40.0658 88.0942 39.9371L88.1678 40.7953C85.7892 41.2244 83.2145 41.2367 81.3263 41.2367L81.1424 40.2681ZM87.9348 33.5738V34.5056H81.3509V33.5738H84.0605V32.2987H85.2252V33.5738H87.9348ZM84.649 35.9769C83.7294 35.9769 83.1164 36.4305 83.1164 37.1294C83.1164 37.8282 83.7294 38.2573 84.649 38.2573C85.5685 38.2573 86.1815 37.8282 86.1815 37.1294C86.1815 36.4305 85.5685 35.9769 84.649 35.9769Z" fill="#BDBDBD"/>
<path d="M148.038 33.2428C148.026 34.7018 149.816 36.075 151.974 36.357L151.52 37.3133C149.724 37.0252 148.143 36.0933 147.438 34.7999C146.714 36.0995 145.139 37.0252 143.355 37.3133L142.889 36.357C145.047 36.075 146.812 34.714 146.825 33.2428V32.642H148.038V33.2428ZM152.428 38.3922V39.3485H147.965V43.2597H146.825V39.3485H142.411V38.3922H152.428Z" fill="#757575"/>
<path d="M212.286 32.7278V36.4918H209.123V37.7669H213.561V38.711H203.544V37.7669H207.97V36.4918H204.819V32.7278H212.286ZM205.959 33.6474V35.56H211.133V33.6474H205.959ZM212.335 39.7531V43.2597H211.158V40.6727H204.66V39.7531H212.335Z" fill="#BDBDBD"/>
<path d="M99.7326 77.4228C101.685 76.3352 103.005 74.253 103.005 71.8598C103.005 69.4666 101.462 67.0488 99.2476 66.0519C100.11 63.7811 99.6273 61.1184 97.7974 59.2886C95.9676 57.4588 93.3049 56.9762 91.0342 57.8384C90.0396 55.6265 87.813 54.0833 85.2287 54.0833C82.6444 54.0833 80.4177 55.6265 79.4208 57.8409C77.15 56.9786 74.4873 57.4612 72.6575 59.291C70.8301 61.1184 70.3451 63.7836 71.2073 66.0543C68.9954 67.0488 67.4521 69.273 67.4521 71.8598C67.4521 74.4465 68.9954 76.6707 71.2098 77.6677C70.3475 79.9385 70.8301 82.6012 72.6599 84.431C74.4873 86.2584 77.1525 86.7434 79.4232 85.8811C80.4202 88.0955 82.6444 89.6388 85.2311 89.6388C87.8179 89.6388 89.7065 88.3185 90.7941 86.3661L103.008 89.6388L99.735 77.4252L99.7326 77.4228Z" fill="#E0E9FF"/>
<path d="M89.8947 67.6086C90.1951 67.2968 90.6912 67.2878 91.0031 67.588C91.3149 67.8885 91.324 68.3845 91.0236 68.6964L83.4709 76.5392C83.4641 76.5463 83.4575 76.5538 83.4504 76.5607C83.442 76.5687 83.4326 76.5756 83.424 76.5832C83.4179 76.5885 83.4117 76.5936 83.4054 76.5988C83.3896 76.612 83.3732 76.6242 83.3566 76.6359C83.3536 76.638 83.3509 76.6406 83.3478 76.6427C83.3335 76.6525 83.3187 76.6613 83.3039 76.6701C83.2927 76.6767 83.2812 76.6826 83.2697 76.6886C83.2556 76.6961 83.2412 76.7026 83.2267 76.7091C83.2214 76.7115 83.2165 76.7147 83.2111 76.7169C83.181 76.7297 83.1495 76.7375 83.1183 76.7462C83.0975 76.7521 83.077 76.7587 83.0558 76.7628C83.0306 76.7678 83.0052 76.7692 82.9797 76.7716C82.9549 76.774 82.9304 76.7775 82.9054 76.7775C82.8766 76.7775 82.8482 76.7738 82.8195 76.7707C82.7997 76.7685 82.7796 76.7685 82.7599 76.7648C82.7294 76.7591 82.6999 76.7498 82.6701 76.7404C82.6495 76.7339 82.6287 76.7281 82.6086 76.7199C82.5937 76.7138 82.5791 76.7074 82.5646 76.7003C82.5585 76.6974 82.5522 76.6947 82.5461 76.6916C82.5325 76.6845 82.5193 76.677 82.506 76.6691C82.4963 76.6633 82.4863 76.6578 82.4767 76.6515C82.4648 76.6437 82.4531 76.6356 82.4416 76.6271C82.4304 76.6189 82.4192 76.6106 82.4084 76.6017C82.3997 76.5946 82.3914 76.5868 82.383 76.5793C82.376 76.573 82.3683 76.5672 82.3615 76.5607L82.341 76.5402L78.5646 72.6183C78.2642 72.3064 78.2734 71.8104 78.5851 71.5099C78.8971 71.2095 79.393 71.2186 79.6935 71.5304L82.9054 74.8644L89.8947 67.6086Z" fill="#487AFF"/>
<path d="M162.127 77.4228C164.079 76.3352 165.399 74.253 165.399 71.8598C165.399 69.4666 163.856 67.0488 161.642 66.0519C162.504 63.7811 162.021 61.1184 160.191 59.2886C158.362 57.4588 155.699 56.9762 153.428 57.8384C152.434 55.6265 150.207 54.0833 147.623 54.0833C145.038 54.0833 142.812 55.6265 141.815 57.8409C139.544 56.9786 136.881 57.4612 135.052 59.291C133.224 61.1184 132.739 63.7836 133.601 66.0543C131.389 67.0488 129.846 69.273 129.846 71.8598C129.846 74.4465 131.389 76.6707 133.604 77.6677C132.742 79.9385 133.224 82.6012 135.054 84.431C136.881 86.2584 139.546 86.7434 141.817 85.8811C142.814 88.0955 145.038 89.6388 147.625 89.6388C150.212 89.6388 152.101 88.3185 153.188 86.3661L165.402 89.6388L162.129 77.4252L162.127 77.4228Z" fill="#F5F5F5"/>
<g clip-path="url(#clip0_11115_5248)">
<path d="M141.603 71.1856C141.342 71.1856 141.134 71.0924 140.979 70.906C140.824 70.7196 140.778 70.5021 140.839 70.2536C140.914 69.9429 141.013 69.6447 141.137 69.3589C141.262 69.0731 141.405 68.7935 141.566 68.5201C141.69 68.3089 141.874 68.1908 142.116 68.166C142.359 68.1411 142.573 68.2157 142.759 68.3896C142.871 68.5015 142.939 68.6414 142.964 68.8094C142.989 68.9774 142.958 69.1295 142.871 69.2657C142.747 69.4769 142.638 69.6976 142.545 69.9278C142.452 70.1579 142.374 70.3908 142.312 70.6264C142.274 70.7879 142.184 70.9216 142.041 71.0275C141.898 71.1334 141.752 71.1861 141.603 71.1856ZM146.599 77.6721C146.599 77.9455 146.506 78.1568 146.319 78.3059C146.133 78.455 145.915 78.4985 145.667 78.4364C145.369 78.3494 145.077 78.247 144.791 78.1292C144.505 78.0114 144.219 77.8715 143.933 77.7094C143.722 77.5852 143.604 77.402 143.579 77.1599C143.554 76.9179 143.629 76.7034 143.803 76.5165C143.915 76.4047 144.055 76.3363 144.223 76.3115C144.391 76.2866 144.543 76.3177 144.679 76.4047C144.89 76.5289 145.111 76.6378 145.341 76.7312C145.571 76.8247 145.804 76.9022 146.04 76.9638C146.201 77.0011 146.335 77.0913 146.441 77.2345C146.547 77.3776 146.599 77.5235 146.599 77.6721ZM142.759 75.4727C142.573 75.6466 142.358 75.7212 142.116 75.6963C141.874 75.6715 141.691 75.5534 141.566 75.3422C141.405 75.0564 141.265 74.7706 141.147 74.4848C141.029 74.199 140.927 73.9069 140.839 73.6087C140.777 73.3602 140.821 73.1427 140.97 72.9563C141.119 72.7699 141.33 72.6767 141.603 72.6767C141.765 72.6767 141.914 72.7297 142.051 72.8355C142.187 72.9414 142.274 73.0749 142.312 73.2359C142.374 73.472 142.451 73.7051 142.544 73.9353C142.637 74.1654 142.746 74.3859 142.871 74.5966C142.958 74.7333 142.989 74.8886 142.964 75.0626C142.939 75.2366 142.871 75.3733 142.759 75.4727ZM149.003 78.4177C148.755 78.4799 148.541 78.4364 148.361 78.2873C148.181 78.1381 148.09 77.9331 148.09 77.6721C148.09 77.5106 148.143 77.3615 148.249 77.2248C148.355 77.0881 148.488 77.0011 148.649 76.9638C149.792 76.6656 150.731 76.0535 151.464 75.1275C152.197 74.2015 152.563 73.136 152.563 71.9312C152.563 70.4773 152.057 69.2441 151.045 68.2316C150.032 67.2191 148.799 66.7126 147.344 66.7121H147.195L147.866 67.3831C148.003 67.5198 148.071 67.6938 148.071 67.905C148.071 68.1163 148.003 68.2902 147.866 68.4269C147.73 68.5636 147.556 68.6319 147.344 68.6319C147.133 68.6319 146.959 68.5636 146.822 68.4269L144.884 66.4884C144.809 66.4138 144.756 66.3331 144.725 66.2461C144.694 66.1591 144.678 66.0659 144.679 65.9665C144.679 65.8671 144.695 65.7739 144.726 65.6869C144.757 65.5999 144.809 65.5191 144.884 65.4446L146.804 63.5061C146.953 63.3694 147.133 63.301 147.344 63.301C147.556 63.301 147.73 63.3694 147.866 63.5061C148.015 63.6552 148.09 63.8354 148.09 64.0466C148.09 64.2579 148.022 64.4318 147.885 64.5685L147.233 65.2209H147.344C149.208 65.2209 150.793 65.8733 152.097 67.1781C153.402 68.4828 154.055 70.0672 154.055 71.9312C154.055 73.472 153.582 74.8389 152.638 76.0319C151.694 77.2248 150.482 78.0201 149.003 78.4177Z" fill="#757575"/>
</g>
<path d="M223.209 77.4228C225.161 76.3352 226.482 74.253 226.482 71.8598C226.482 69.4666 224.938 67.0488 222.724 66.0519C223.586 63.7811 223.104 61.1184 221.274 59.2886C219.444 57.4588 216.781 56.9762 214.51 57.8384C213.516 55.6265 211.289 54.0833 208.705 54.0833C206.121 54.0833 203.894 55.6265 202.897 57.8409C200.626 56.9786 197.964 57.4612 196.134 59.291C194.306 61.1184 193.821 63.7836 194.684 66.0543C192.472 67.0488 190.928 69.273 190.928 71.8598C190.928 74.4465 192.472 76.6707 194.686 77.6677C193.824 79.9385 194.306 82.6012 196.136 84.431C197.964 86.2584 200.629 86.7434 202.9 85.8811C203.896 88.0955 206.121 89.6388 208.707 89.6388C211.294 89.6388 213.183 88.3185 214.27 86.3661L226.484 89.6388L223.211 77.4252L223.209 77.4228Z" fill="#E0E9FF"/>
<path d="M213.371 67.6086C213.671 67.2968 214.167 67.2878 214.479 67.588C214.791 67.8885 214.8 68.3845 214.5 68.6964L206.947 76.5392C206.94 76.5463 206.934 76.5538 206.927 76.5607C206.918 76.5687 206.909 76.5756 206.9 76.5832C206.894 76.5885 206.888 76.5936 206.882 76.5988C206.866 76.612 206.85 76.6242 206.833 76.6359C206.83 76.638 206.827 76.6406 206.824 76.6427C206.81 76.6525 206.795 76.6613 206.78 76.6701C206.769 76.6767 206.757 76.6826 206.746 76.6886C206.732 76.6961 206.718 76.7026 206.703 76.7091C206.698 76.7115 206.693 76.7147 206.687 76.7169C206.657 76.7297 206.626 76.7375 206.595 76.7462C206.574 76.7521 206.553 76.7587 206.532 76.7628C206.507 76.7678 206.482 76.7692 206.456 76.7716C206.431 76.774 206.407 76.7775 206.382 76.7775C206.353 76.7775 206.325 76.7738 206.296 76.7707C206.276 76.7685 206.256 76.7685 206.236 76.7648C206.206 76.7591 206.176 76.7498 206.146 76.7404C206.126 76.7339 206.105 76.7281 206.085 76.7199C206.07 76.7138 206.055 76.7074 206.041 76.7003C206.035 76.6974 206.028 76.6947 206.022 76.6916C206.009 76.6845 205.996 76.677 205.982 76.6691C205.973 76.6633 205.963 76.6578 205.953 76.6515C205.941 76.6437 205.929 76.6356 205.918 76.6271C205.907 76.6189 205.896 76.6106 205.885 76.6017C205.876 76.5946 205.868 76.5868 205.859 76.5793C205.852 76.573 205.845 76.5672 205.838 76.5607L205.817 76.5402L202.041 72.6183C201.741 72.3064 201.75 71.8104 202.061 71.5099C202.373 71.2095 202.869 71.2186 203.17 71.5304L206.382 74.8644L213.371 67.6086Z" fill="#487AFF"/>
</g>
<defs>
<filter id="filter0_i_11115_5248" x="0" y="0" width="295" height="180" filterUnits="userSpaceOnUse" color-interpolation-filters="sRGB">
<feFlood flood-opacity="0" result="BackgroundImageFix"/>
<feBlend mode="normal" in="SourceGraphic" in2="BackgroundImageFix" result="shape"/>
<feColorMatrix in="SourceAlpha" type="matrix" values="0 0 0 0 0 0 0 0 0 0 0 0 0 0 0 0 0 0 127 0" result="hardAlpha"/>
<feOffset/>
<feGaussianBlur stdDeviation="6.25"/>
<feComposite in2="hardAlpha" operator="arithmetic" k2="-1" k3="1"/>
<feColorMatrix type="matrix" values="0 0 0 0 0 0 0 0 0 0 0 0 0 0 0 0 0 0 0.08 0"/>
<feBlend mode="normal" in2="shape" result="effect1_innerShadow_11115_5248"/>
</filter>
<clipPath id="clip0_11115_5248">
<rect width="18.8236" height="18.8236" fill="white" transform="translate(138.212 62.2271)"/>
</clipPath>
</defs>
</svg>
