<svg width="24" height="24" viewBox="0 0 24 24" fill="none" xmlns="http://www.w3.org/2000/svg">
<rect x="2" y="3.41406" width="2" height="25" rx="1" transform="rotate(-45 2 3.41406)" fill="#9E9E9E"/>
<path d="M8.03821 11.4512C8.01357 11.6306 8.00012 11.8138 8.00012 12C8.00012 14.2089 9.79127 15.9997 12.0001 16C12.186 16 12.3688 15.9855 12.548 15.9609L14.6007 18.0146C13.7662 18.2132 12.8955 18.3193 12.0001 18.3193C7.98921 18.3191 4.47373 16.2094 2.49622 13.04C2.1601 12.5013 2.16013 11.8191 2.49622 11.2803C3.17312 10.1953 4.03004 9.23406 5.02551 8.43945L8.03821 11.4512ZM12.0001 6C16.0114 6 19.5274 8.11062 21.505 11.2803C21.8411 11.8191 21.8412 12.5012 21.505 13.04C20.3552 14.8829 18.6843 16.3652 16.6993 17.2852L14.5197 15.1055C15.4226 14.3721 16.0001 13.2539 16.0001 12C16.0001 9.79086 14.2093 8 12.0001 8C10.7467 8.00019 9.62807 8.57703 8.89465 9.47949L6.73157 7.31641C8.30146 6.47662 10.0948 6.0001 12.0001 6Z" fill="#9E9E9E"/>
</svg>
