<svg width="24" height="24" viewBox="0 0 24 24" fill="none" xmlns="http://www.w3.org/2000/svg">
<rect x="2" y="3.41406" width="2" height="25" rx="1" transform="rotate(-45 2 3.41406)" fill="#9E9E9E"/>
<path d="M8.03809 11.4512C8.01345 11.6306 8 11.8138 8 12C8 14.209 9.79107 15.9998 12 16C12.1859 16 12.3687 15.9855 12.5479 15.9609L14.6006 18.0146C13.7661 18.2133 12.8955 18.3193 12 18.3193C7.98902 18.3192 4.47364 16.2094 2.49609 13.04C2.15992 12.5012 2.15995 11.8191 2.49609 11.2803C3.17302 10.1953 4.02987 9.23407 5.02539 8.43945L8.03809 11.4512ZM12 6C16.0113 6 19.5273 8.11058 21.5049 11.2803C21.841 11.8191 21.8411 12.5012 21.5049 13.04C20.3551 14.8829 18.6841 16.3652 16.6992 17.2852L14.5195 15.1055C15.4224 14.3721 16 13.2538 16 12C16 9.79086 14.2091 8 12 8C10.7464 8.00014 9.62699 8.57677 8.89355 9.47949L6.73145 7.31641C8.30135 6.47664 10.0947 6.00008 12 6Z" fill="#9E9E9E"/>
</svg>
