<svg width="24" height="24" viewBox="0 0 24 24" fill="none" xmlns="http://www.w3.org/2000/svg">
<path d="M16.5 3C15.6167 2.99987 14.7464 3.21288 13.963 3.62095C13.3916 3.91855 12.8788 4.31348 12.4467 4.78628C12.2124 5.04266 11.7876 5.04266 11.5533 4.78628C11.1212 4.31348 10.6084 3.91855 10.037 3.62095C9.25363 3.21288 8.38332 2.99987 7.5 3C6.04131 3 4.64236 3.57946 3.61091 4.61091C2.57946 5.64236 2 7.04131 2 8.5C2 14.0685 8.1625 18.689 11.7177 21.1549C11.8882 21.2731 12.1118 21.2731 12.2823 21.1549C15.8375 18.689 22 14.0685 22 8.5C22 7.77773 21.8577 7.06253 21.5813 6.39524C21.3049 5.72795 20.8998 5.12163 20.3891 4.61091C19.8784 4.10019 19.2721 3.69506 18.6048 3.41866C17.9375 3.14226 17.2223 3 16.5 3Z" fill="#FF5776"/>
</svg>
