<svg width="28" height="28" viewBox="0 0 28 28" fill="none" xmlns="http://www.w3.org/2000/svg">
<path d="M19.9264 6.40017C18.3401 4.86072 16.2165 3.99979 14.006 4C12.8894 3.99974 11.7837 4.21947 10.7521 4.64664C9.72047 5.07381 8.78311 5.70006 7.99357 6.48959C7.20404 7.27913 6.5778 8.21649 6.15062 9.24811C5.72345 10.2797 5.50372 11.3854 5.50398 12.502V16.612L4.08798 20.256L4.04598 20.38C3.99361 20.5701 3.98586 20.7697 4.02334 20.9633C4.06082 21.1569 4.14252 21.3392 4.26206 21.496C4.38161 21.6528 4.53576 21.7799 4.71251 21.8673C4.88925 21.9547 5.0838 22.0002 5.28098 22H22.728L22.858 21.994C23.1734 21.9618 23.4657 21.8137 23.6781 21.5783C23.8906 21.3429 24.0081 21.0371 24.008 20.72L23.998 20.563C23.9846 20.4577 23.959 20.3557 23.921 20.257L22.507 16.613V12.501H22.503V12.246C22.4369 10.0365 21.5127 7.93963 19.9264 6.40017Z" stroke="white" stroke-width="1.5" stroke-linejoin="round"/>
<path d="M17.0059 22C17.0059 22.7956 16.6898 23.5587 16.1272 24.1213C15.5646 24.6839 14.8015 25 14.0059 25C13.2102 25 12.4471 24.6839 11.8845 24.1213C11.3219 23.5587 11.0059 22.7956 11.0059 22L14.0059 22H17.0059Z" stroke="white" stroke-width="1.5" stroke-linejoin="round"/>
</svg>
