<svg width="20" height="20" viewBox="0 0 20 20" fill="none" xmlns="http://www.w3.org/2000/svg">
<g clip-path="url(#clip0_684_20457)">
<path d="M16.6667 11.6672C16.8791 11.6674 17.0834 11.7488 17.2379 11.8946C17.3923 12.0404 17.4853 12.2397 17.4977 12.4517C17.5101 12.6637 17.4412 12.8725 17.3048 13.0354C17.1685 13.1983 16.9751 13.3029 16.7642 13.328L16.6667 13.3339H5.34505L7.25589 15.2447C7.40534 15.3947 7.49212 15.5959 7.49858 15.8075C7.50504 16.0191 7.43071 16.2253 7.29068 16.3841C7.15065 16.5429 6.95543 16.6425 6.74466 16.6625C6.53389 16.6826 6.32338 16.6217 6.15589 16.4922L6.07755 16.423L2.88589 13.2314C2.33172 12.678 2.68672 11.7455 3.43839 11.6722L3.53422 11.6672H16.6667ZM12.7442 3.57804C12.8877 3.43456 13.0786 3.34836 13.2812 3.33563C13.4837 3.32289 13.6839 3.38449 13.8442 3.50887L13.9226 3.57804L17.1142 6.7697C17.6684 7.32304 17.3134 8.25554 16.5617 8.32887L16.4659 8.33387H3.33339C3.12099 8.33363 2.91669 8.2523 2.76225 8.1065C2.6078 7.96069 2.51486 7.76141 2.50241 7.54937C2.48996 7.33734 2.55895 7.12855 2.69527 6.96568C2.8316 6.8028 3.02497 6.69812 3.23589 6.67304L3.33339 6.6672H14.6551L12.7442 4.75637C12.588 4.6001 12.5002 4.38817 12.5002 4.1672C12.5002 3.94623 12.588 3.73431 12.7442 3.57804Z" fill="#BDBDBD"/>
</g>
<defs>
<clipPath id="clip0_684_20457">
<rect width="20" height="20" fill="white"/>
</clipPath>
</defs>
</svg>
