<svg width="20" height="20" viewBox="0 0 20 20" fill="none" xmlns="http://www.w3.org/2000/svg">
<path fill-rule="evenodd" clip-rule="evenodd" d="M8.14817 17.4999H11.8515C14.4523 17.4999 15.7532 17.4999 16.6873 16.8874C17.0905 16.6234 17.4377 16.2824 17.709 15.8841C18.3332 14.9674 18.3332 13.6899 18.3332 11.1366C18.3332 8.58325 18.3332 7.30575 17.709 6.38908C17.4377 5.99074 17.0905 5.6498 16.6873 5.38575C16.0873 4.99158 15.3357 4.85075 14.1848 4.80075C13.6357 4.80075 13.1632 4.39242 13.0557 3.86325C12.9735 3.47564 12.7601 3.12828 12.4514 2.87988C12.1427 2.63147 11.7577 2.49726 11.3615 2.49992H8.63817C7.81484 2.49992 7.10567 3.07075 6.944 3.86325C6.8365 4.39242 6.364 4.80075 5.81484 4.80075C4.66484 4.85075 3.91317 4.99242 3.31234 5.38575C2.90945 5.64988 2.56257 5.99082 2.2915 6.38908C1.6665 7.30575 1.6665 8.58242 1.6665 11.1366C1.6665 13.6907 1.6665 14.9666 2.29067 15.8841C2.56067 16.2807 2.90734 16.6216 3.31234 16.8874C4.2465 17.4999 5.54734 17.4999 8.14817 17.4999ZM9.99984 7.72742C8.08234 7.72742 6.52734 9.25325 6.52734 11.1357C6.52734 13.0182 8.08317 14.5466 9.99984 14.5466C11.9165 14.5466 13.4723 13.0199 13.4723 11.1374C13.4723 9.25492 11.9165 7.72742 9.99984 7.72742ZM9.99984 9.09075C8.84984 9.09075 7.9165 10.0066 7.9165 11.1366C7.9165 12.2657 8.84984 13.1816 9.99984 13.1816C11.1498 13.1816 12.0832 12.2657 12.0832 11.1366C12.0832 10.0074 11.1498 9.09075 9.99984 9.09075ZM13.9348 8.40908C13.9348 8.03242 14.2457 7.72742 14.6298 7.72742H15.5548C15.9382 7.72742 16.2498 8.03242 16.2498 8.40908C16.2481 8.5915 16.174 8.76575 16.0438 8.89357C15.9137 9.02138 15.7381 9.0923 15.5557 9.09075H14.6298C14.5394 9.09163 14.4498 9.0747 14.3659 9.04091C14.2821 9.00713 14.2057 8.95716 14.1411 8.89386C14.0766 8.83057 14.0252 8.75517 13.9898 8.67199C13.9544 8.58882 13.9357 8.49948 13.9348 8.40908Z" fill="#BDBDBD"/>
</svg>
