<svg width="16" height="16" viewBox="0 0 16 16" fill="none" xmlns="http://www.w3.org/2000/svg">
<path d="M12.8947 9.87709C13.5536 9.51002 13.9992 8.8073 13.9992 7.99959C13.9992 7.19187 13.4783 6.37589 12.731 6.03941C13.022 5.27303 12.8591 4.37437 12.2415 3.7568C11.624 3.13924 10.7253 2.97637 9.95894 3.26738C9.62329 2.52084 8.87179 2 7.99959 2C7.12739 2 6.37589 2.52084 6.03941 3.26821C5.27303 2.9772 4.37437 3.14006 3.7568 3.75763C3.14006 4.37437 2.97637 5.27385 3.26738 6.04023C2.52084 6.37589 2 7.12656 2 7.99959C2 8.87261 2.52084 9.62329 3.26821 9.95977C2.9772 10.7261 3.14006 11.6248 3.75763 12.2424C4.37437 12.8591 5.27385 13.0228 6.04023 12.7318C6.37671 13.4792 7.12739 14 8.00041 14C8.87344 14 9.51085 13.5544 9.87792 12.8955L14 14L12.8955 9.87792L12.8947 9.87709Z" fill="#487AFF"/>
</svg>
