<svg width="295" height="80" viewBox="0 0 295 80" fill="none" xmlns="http://www.w3.org/2000/svg">
<rect width="295" height="80" fill="white"/>
<path d="M26.5741 59.7641C28.1452 58.8888 29.2077 57.2132 29.2077 55.2873C29.2077 53.3614 27.9658 51.4157 26.1838 50.6134C26.8776 48.7861 26.4893 46.6433 25.0168 45.1708C23.5442 43.6982 21.4015 43.3099 19.5741 44.0038C18.7738 42.2237 16.9819 40.9818 14.9022 40.9818C12.8225 40.9818 11.0306 42.2237 10.2283 44.0057C8.40094 43.3119 6.25817 43.7002 4.78563 45.1727C3.31506 46.6433 2.92475 48.788 3.61864 50.6154C1.83858 51.4157 0.59668 53.2057 0.59668 55.2873C0.59668 57.369 1.83858 59.1589 3.62061 59.9612C2.92672 61.7886 3.31506 63.9313 4.7876 65.4039C6.25817 66.8744 8.40291 67.2647 10.2303 66.5709C11.0326 68.3529 12.8225 69.5948 14.9042 69.5948C16.9858 69.5948 18.5057 68.5323 19.3809 66.9612L29.2097 69.5948L26.576 59.766L26.5741 59.7641Z" fill="#E0E9FF"/>
<path d="M18.6569 52.3511C18.8986 52.1005 19.2985 52.0923 19.5495 52.3335C19.8003 52.5751 19.8082 52.9749 19.5671 53.2261L13.488 59.5386C13.4852 59.5415 13.481 59.5435 13.4782 59.5464C13.4756 59.549 13.474 59.5526 13.4714 59.5552C13.4593 59.5668 13.4441 59.5749 13.4313 59.5854C13.4138 59.5999 13.3973 59.6151 13.3786 59.6274C13.3632 59.6375 13.3467 59.6452 13.3308 59.6538C13.31 59.6649 13.2899 59.6764 13.2683 59.685C13.2533 59.6911 13.2377 59.6949 13.2224 59.6997C13.1981 59.7073 13.174 59.7146 13.1491 59.7192C13.1339 59.7221 13.1186 59.7234 13.1032 59.7251C13.0797 59.7277 13.0565 59.731 13.0329 59.7309C13.0093 59.7309 12.986 59.7277 12.9626 59.7251C12.9472 59.7234 12.9319 59.7221 12.9167 59.7192C12.8931 59.7148 12.8704 59.7078 12.8474 59.7007C12.83 59.6953 12.8125 59.6909 12.7956 59.6841C12.7761 59.6761 12.7578 59.6657 12.739 59.6557C12.7216 59.6466 12.7038 59.6384 12.6872 59.6274C12.6685 59.6151 12.652 59.5999 12.6345 59.5854C12.6219 59.5751 12.6073 59.5667 12.5954 59.5552C12.5922 59.5521 12.5897 59.5485 12.5866 59.5454C12.5842 59.543 12.5812 59.5411 12.5788 59.5386L9.53876 56.3823C9.29735 56.1312 9.3054 55.7314 9.55634 55.4897C9.80745 55.2485 10.2073 55.2564 10.4489 55.5073L13.0329 58.1899L18.6569 52.3511Z" fill="#487AFF"/>
<path d="M70.8724 59.7641C72.4435 58.8888 73.506 57.2132 73.506 55.2873C73.506 53.3614 72.2641 51.4157 70.4821 50.6134C71.176 48.7861 70.7876 46.6433 69.3151 45.1708C67.8426 43.6982 65.6998 43.3099 63.8724 44.0038C63.0721 42.2237 61.2802 40.9818 59.2005 40.9818C57.1208 40.9818 55.3289 42.2237 54.5266 44.0057C52.6993 43.3119 50.5565 43.7002 49.084 45.1727C47.6134 46.6433 47.2231 48.788 47.917 50.6154C46.1369 51.4157 44.895 53.2057 44.895 55.2873C44.895 57.369 46.1369 59.1589 47.9189 59.9612C47.2251 61.7886 47.6134 63.9313 49.0859 65.4039C50.5565 66.8744 52.7012 67.2647 54.5286 66.5709C55.3309 68.3529 57.1208 69.5948 59.2025 69.5948C61.2842 69.5948 62.804 68.5323 63.6792 66.9612L73.508 69.5948L70.8744 59.766L70.8724 59.7641Z" fill="#E0E9FF"/>
<path d="M62.9553 52.3511C63.1969 52.1005 63.5968 52.0923 63.8478 52.3335C64.0987 52.5751 64.1065 52.9749 63.8654 53.2261L57.7863 59.5386C57.7835 59.5415 57.7794 59.5435 57.7766 59.5464C57.774 59.549 57.7724 59.5526 57.7697 59.5552C57.7576 59.5668 57.7424 59.5749 57.7297 59.5854C57.7121 59.5999 57.6957 59.6151 57.6769 59.6274C57.6616 59.6375 57.6451 59.6452 57.6291 59.6538C57.6084 59.6649 57.5882 59.6764 57.5666 59.685C57.5516 59.6911 57.536 59.6949 57.5207 59.6997C57.4964 59.7073 57.4724 59.7146 57.4475 59.7192C57.4322 59.7221 57.4169 59.7234 57.4016 59.7251C57.3781 59.7277 57.3548 59.731 57.3312 59.7309C57.3077 59.7309 57.2844 59.7277 57.2609 59.7251C57.2456 59.7234 57.2303 59.7221 57.215 59.7192C57.1915 59.7148 57.1687 59.7078 57.1457 59.7007C57.1284 59.6953 57.1108 59.6909 57.0939 59.6841C57.0744 59.6761 57.0561 59.6657 57.0373 59.6557C57.02 59.6466 57.0021 59.6384 56.9855 59.6274C56.9669 59.6151 56.9504 59.5999 56.9328 59.5854C56.9202 59.5751 56.9057 59.5667 56.8937 59.5552C56.8906 59.5521 56.888 59.5485 56.885 59.5454C56.8825 59.543 56.8795 59.5411 56.8771 59.5386L53.8371 56.3823C53.5957 56.1312 53.6037 55.7314 53.8547 55.4897C54.1058 55.2485 54.5056 55.2564 54.7473 55.5073L57.3312 58.1899L62.9553 52.3511Z" fill="#487AFF"/>
<path d="M115.171 59.7641C116.742 58.8888 117.804 57.2132 117.804 55.2873C117.804 53.3614 116.562 51.4157 114.78 50.6134C115.474 48.7861 115.086 46.6433 113.613 45.1708C112.141 43.6982 109.998 43.3099 108.171 44.0038C107.37 42.2237 105.579 40.9818 103.499 40.9818C101.419 40.9818 99.6273 42.2237 98.825 44.0057C96.9976 43.3119 94.8548 43.7002 93.3823 45.1727C91.9117 46.6433 91.5214 48.788 92.2153 50.6154C90.4353 51.4157 89.1934 53.2057 89.1934 55.2873C89.1934 57.369 90.4353 59.1589 92.2173 59.9612C91.5234 61.7886 91.9117 63.9313 93.3843 65.4039C94.8548 66.8744 96.9996 67.2647 98.827 66.5709C99.6293 68.3529 101.419 69.5948 103.501 69.5948C105.582 69.5948 107.102 68.5323 107.978 66.9612L117.806 69.5948L115.173 59.766L115.171 59.7641Z" fill="#E0E9FF"/>
<path d="M107.254 52.3511C107.495 52.1005 107.895 52.0923 108.146 52.3335C108.397 52.5751 108.405 52.9749 108.164 53.2261L102.085 59.5386C102.082 59.5415 102.078 59.5435 102.075 59.5464C102.072 59.549 102.071 59.5526 102.068 59.5552C102.056 59.5668 102.041 59.5749 102.028 59.5854C102.01 59.5999 101.994 59.6151 101.975 59.6274C101.96 59.6375 101.943 59.6452 101.927 59.6538C101.907 59.6649 101.887 59.6764 101.865 59.685C101.85 59.6911 101.834 59.6949 101.819 59.6997C101.795 59.7073 101.771 59.7146 101.746 59.7192C101.731 59.7221 101.715 59.7234 101.7 59.7251C101.676 59.7277 101.653 59.731 101.63 59.7309C101.606 59.7309 101.583 59.7277 101.559 59.7251C101.544 59.7234 101.529 59.7221 101.513 59.7192C101.49 59.7148 101.467 59.7078 101.444 59.7007C101.427 59.6953 101.409 59.6909 101.392 59.6841C101.373 59.6761 101.354 59.6657 101.336 59.6557C101.318 59.6466 101.3 59.6384 101.284 59.6274C101.265 59.6151 101.249 59.5999 101.231 59.5854C101.219 59.5751 101.204 59.5667 101.192 59.5552C101.189 59.5521 101.186 59.5485 101.183 59.5454C101.181 59.543 101.178 59.5411 101.175 59.5386L98.1354 56.3823C97.894 56.1312 97.9021 55.7314 98.153 55.4897C98.4041 55.2485 98.804 55.2564 99.0456 55.5073L101.63 58.1899L107.254 52.3511Z" fill="#487AFF"/>
<path d="M159.469 59.7641C161.04 58.8888 162.103 57.2132 162.103 55.2873C162.103 53.3614 160.861 51.4157 159.079 50.6134C159.773 48.7861 159.385 46.6433 157.912 45.1708C156.439 43.6982 154.297 43.3099 152.469 44.0038C151.669 42.2237 149.877 40.9818 147.797 40.9818C145.718 40.9818 143.926 42.2237 143.124 44.0057C141.296 43.3119 139.153 43.7002 137.681 45.1727C136.21 46.6433 135.82 48.788 136.514 50.6154C134.734 51.4157 133.492 53.2057 133.492 55.2873C133.492 57.369 134.734 59.1589 136.516 59.9612C135.822 61.7886 136.21 63.9313 137.683 65.4039C139.153 66.8744 141.298 67.2647 143.126 66.5709C143.928 68.3529 145.718 69.5948 147.799 69.5948C149.881 69.5948 151.401 68.5323 152.276 66.9612L162.105 69.5948L159.471 59.766L159.469 59.7641Z" fill="#E0E9FF"/>
<path d="M151.552 52.3511C151.794 52.1005 152.194 52.0923 152.445 52.3335C152.696 52.5751 152.703 52.9749 152.462 53.2261L146.383 59.5386C146.38 59.5415 146.376 59.5435 146.373 59.5464C146.371 59.549 146.369 59.5526 146.367 59.5552C146.355 59.5668 146.339 59.5749 146.327 59.5854C146.309 59.5999 146.293 59.6151 146.274 59.6274C146.259 59.6375 146.242 59.6452 146.226 59.6538C146.205 59.6649 146.185 59.6764 146.164 59.685C146.149 59.6911 146.133 59.6949 146.118 59.6997C146.093 59.7073 146.069 59.7146 146.044 59.7192C146.029 59.7221 146.014 59.7234 145.998 59.7251C145.975 59.7277 145.952 59.731 145.928 59.7309C145.905 59.7309 145.881 59.7277 145.858 59.7251C145.842 59.7234 145.827 59.7221 145.812 59.7192C145.788 59.7148 145.766 59.7078 145.743 59.7007C145.725 59.6953 145.708 59.6909 145.691 59.6841C145.671 59.6761 145.653 59.6657 145.634 59.6557C145.617 59.6466 145.599 59.6384 145.582 59.6274C145.564 59.6151 145.547 59.5999 145.53 59.5854C145.517 59.5751 145.503 59.5667 145.491 59.5552C145.488 59.5521 145.485 59.5485 145.482 59.5454C145.479 59.543 145.476 59.5411 145.474 59.5386L142.434 56.3823C142.193 56.1312 142.201 55.7314 142.452 55.4897C142.703 55.2485 143.103 55.2564 143.344 55.5073L145.928 58.1899L151.552 52.3511Z" fill="#487AFF"/>
<path d="M203.768 59.7641C205.339 58.8888 206.401 57.2132 206.401 55.2873C206.401 53.3614 205.159 51.4157 203.377 50.6134C204.071 48.7861 203.683 46.6433 202.21 45.1708C200.738 43.6982 198.595 43.3099 196.768 44.0038C195.967 42.2237 194.175 40.9818 192.096 40.9818C190.016 40.9818 188.224 42.2237 187.422 44.0057C185.595 43.3119 183.452 43.7002 181.979 45.1727C180.509 46.6433 180.118 48.788 180.812 50.6154C179.032 51.4157 177.79 53.2057 177.79 55.2873C177.79 57.369 179.032 59.1589 180.814 59.9612C180.12 61.7886 180.509 63.9313 181.981 65.4039C183.452 66.8744 185.597 67.2647 187.424 66.5709C188.226 68.3529 190.016 69.5948 192.098 69.5948C194.179 69.5948 195.699 68.5323 196.575 66.9612L206.403 69.5948L203.77 59.766L203.768 59.7641Z" fill="#E0E9FF"/>
<path d="M195.851 52.3511C196.092 52.1005 196.492 52.0923 196.743 52.3335C196.994 52.5751 197.002 52.9749 196.761 53.2261L190.682 59.5386C190.679 59.5415 190.675 59.5435 190.672 59.5464C190.669 59.549 190.668 59.5526 190.665 59.5552C190.653 59.5668 190.638 59.5749 190.625 59.5854C190.607 59.5999 190.591 59.6151 190.572 59.6274C190.557 59.6375 190.54 59.6452 190.524 59.6538C190.504 59.6649 190.483 59.6764 190.462 59.685C190.447 59.6911 190.431 59.6949 190.416 59.6997C190.392 59.7073 190.368 59.7146 190.343 59.7192C190.327 59.7221 190.312 59.7234 190.297 59.7251C190.273 59.7277 190.25 59.731 190.227 59.7309C190.203 59.7309 190.18 59.7277 190.156 59.7251C190.141 59.7234 190.126 59.7221 190.11 59.7192C190.087 59.7148 190.064 59.7078 190.041 59.7007C190.024 59.6953 190.006 59.6909 189.989 59.6841C189.97 59.6761 189.951 59.6657 189.933 59.6557C189.915 59.6466 189.897 59.6384 189.881 59.6274C189.862 59.6151 189.846 59.5999 189.828 59.5854C189.815 59.5751 189.801 59.5667 189.789 59.5552C189.786 59.5521 189.783 59.5485 189.78 59.5454C189.778 59.543 189.775 59.5411 189.772 59.5386L186.732 56.3823C186.491 56.1312 186.499 55.7314 186.75 55.4897C187.001 55.2485 187.401 55.2564 187.643 55.5073L190.227 58.1899L195.851 52.3511Z" fill="#487AFF"/>
<path d="M248.066 59.7641C249.637 58.8888 250.7 57.2132 250.7 55.2873C250.7 53.3614 249.458 51.4157 247.676 50.6134C248.37 48.7861 247.981 46.6433 246.509 45.1708C245.036 43.6982 242.893 43.3099 241.066 44.0038C240.266 42.2237 238.474 40.9818 236.394 40.9818C234.314 40.9818 232.523 42.2237 231.72 44.0057C229.893 43.3119 227.75 43.7002 226.278 45.1727C224.807 46.6433 224.417 48.788 225.111 50.6154C223.331 51.4157 222.089 53.2057 222.089 55.2873C222.089 57.369 223.331 59.1589 225.113 59.9612C224.419 61.7886 224.807 63.9313 226.28 65.4039C227.75 66.8744 229.895 67.2647 231.722 66.5709C232.525 68.3529 234.314 69.5948 236.396 69.5948C238.478 69.5948 239.998 68.5323 240.873 66.9612L250.702 69.5948L248.068 59.766L248.066 59.7641Z" fill="#F5F5F5"/>
<g clip-path="url(#clip0_11271_1012)">
<path d="M231.55 55.23C231.34 55.23 231.173 55.155 231.048 55.005C230.923 54.855 230.885 54.68 230.935 54.48C230.995 54.23 231.075 53.99 231.175 53.76C231.275 53.53 231.39 53.305 231.52 53.085C231.62 52.915 231.768 52.82 231.963 52.8C232.158 52.78 232.33 52.84 232.48 52.98C232.57 53.07 232.625 53.1826 232.645 53.3178C232.665 53.453 232.64 53.5754 232.57 53.685C232.47 53.855 232.383 54.0326 232.308 54.2178C232.233 54.403 232.17 54.5904 232.12 54.78C232.09 54.91 232.017 55.0176 231.902 55.1028C231.787 55.188 231.67 55.2304 231.55 55.23ZM235.57 60.45C235.57 60.67 235.495 60.84 235.345 60.96C235.195 61.08 235.02 61.115 234.82 61.065C234.58 60.995 234.345 60.9126 234.115 60.8178C233.885 60.723 233.655 60.6104 233.425 60.48C233.255 60.38 233.16 60.2326 233.14 60.0378C233.12 59.843 233.18 59.6704 233.32 59.52C233.41 59.43 233.523 59.375 233.658 59.355C233.793 59.335 233.915 59.36 234.025 59.43C234.195 59.53 234.373 59.6176 234.558 59.6928C234.743 59.768 234.93 59.8304 235.12 59.88C235.25 59.91 235.358 59.9826 235.443 60.0978C235.528 60.213 235.57 60.3304 235.57 60.45ZM232.48 58.68C232.33 58.82 232.158 58.88 231.963 58.86C231.768 58.84 231.62 58.745 231.52 58.575C231.39 58.345 231.278 58.115 231.183 57.885C231.088 57.655 231.005 57.42 230.935 57.18C230.885 56.98 230.92 56.805 231.04 56.655C231.16 56.505 231.33 56.43 231.55 56.43C231.68 56.43 231.8 56.4726 231.91 56.5578C232.02 56.643 232.09 56.7504 232.12 56.88C232.17 57.07 232.232 57.2576 232.307 57.4428C232.382 57.628 232.47 57.8054 232.57 57.975C232.64 58.085 232.665 58.21 232.645 58.35C232.625 58.49 232.57 58.6 232.48 58.68ZM237.505 61.05C237.305 61.1 237.133 61.065 236.988 60.945C236.843 60.825 236.77 60.66 236.77 60.45C236.77 60.32 236.813 60.2 236.898 60.09C236.983 59.98 237.09 59.91 237.22 59.88C238.14 59.64 238.895 59.1474 239.485 58.4022C240.075 57.657 240.37 56.7996 240.37 55.83C240.37 54.66 239.963 53.6676 239.148 52.8528C238.333 52.038 237.34 51.6304 236.17 51.63H236.05L236.59 52.17C236.7 52.28 236.755 52.42 236.755 52.59C236.755 52.76 236.7 52.9 236.59 53.01C236.48 53.12 236.34 53.175 236.17 53.175C236 53.175 235.86 53.12 235.75 53.01L234.19 51.45C234.13 51.39 234.087 51.325 234.062 51.255C234.037 51.185 234.025 51.11 234.025 51.03C234.025 50.95 234.038 50.875 234.063 50.805C234.088 50.735 234.13 50.67 234.19 50.61L235.735 49.05C235.855 48.94 236 48.885 236.17 48.885C236.34 48.885 236.48 48.94 236.59 49.05C236.71 49.17 236.77 49.315 236.77 49.485C236.77 49.655 236.715 49.795 236.605 49.905L236.08 50.43H236.17C237.67 50.43 238.945 50.955 239.995 52.005C241.045 53.055 241.57 54.33 241.57 55.83C241.57 57.07 241.19 58.17 240.43 59.13C239.67 60.09 238.695 60.73 237.505 61.05Z" fill="#757575"/>
</g>
<path d="M292.364 59.7641C293.935 58.8888 294.998 57.2132 294.998 55.2873C294.998 53.3614 293.756 51.4157 291.974 50.6134C292.668 48.7861 292.28 46.6433 290.807 45.1708C289.335 43.6982 287.192 43.3099 285.364 44.0038C284.564 42.2237 282.772 40.9818 280.692 40.9818C278.613 40.9818 276.821 42.2237 276.019 44.0057C274.191 43.3119 272.048 43.7002 270.576 45.1727C269.105 46.6433 268.715 48.788 269.409 50.6154C267.629 51.4157 266.387 53.2057 266.387 55.2873C266.387 57.369 267.629 59.1589 269.411 59.9612C268.717 61.7886 269.105 63.9313 270.578 65.4039C272.048 66.8744 274.193 67.2647 276.021 66.5709C276.823 68.3529 278.613 69.5948 280.694 69.5948C282.776 69.5948 284.296 68.5323 285.171 66.9612L295 69.5948L292.366 59.766L292.364 59.7641Z" fill="#E0E9FF"/>
<path d="M284.447 52.3511C284.689 52.1005 285.089 52.0923 285.34 52.3335C285.591 52.5751 285.598 52.9749 285.357 53.2261L279.278 59.5386C279.275 59.5415 279.271 59.5435 279.268 59.5464C279.266 59.549 279.264 59.5526 279.262 59.5552C279.25 59.5668 279.234 59.5749 279.222 59.5854C279.204 59.5999 279.188 59.6151 279.169 59.6274C279.154 59.6375 279.137 59.6452 279.121 59.6538C279.1 59.6649 279.08 59.6764 279.059 59.685C279.044 59.6911 279.028 59.6949 279.013 59.6997C278.988 59.7073 278.964 59.7146 278.939 59.7192C278.924 59.7221 278.909 59.7234 278.893 59.7251C278.87 59.7277 278.847 59.731 278.823 59.7309C278.8 59.7309 278.776 59.7277 278.753 59.7251C278.738 59.7234 278.722 59.7221 278.707 59.7192C278.683 59.7148 278.661 59.7078 278.638 59.7007C278.62 59.6953 278.603 59.6909 278.586 59.6841C278.566 59.6761 278.548 59.6657 278.529 59.6557C278.512 59.6466 278.494 59.6384 278.477 59.6274C278.459 59.6151 278.442 59.5999 278.425 59.5854C278.412 59.5751 278.398 59.5667 278.386 59.5552C278.383 59.5521 278.38 59.5485 278.377 59.5454C278.374 59.543 278.371 59.5411 278.369 59.5386L275.329 56.3823C275.088 56.1312 275.096 55.7314 275.347 55.4897C275.598 55.2485 275.998 55.2564 276.239 55.5073L278.823 58.1899L284.447 52.3511Z" fill="#487AFF"/>
<path d="M13.064 23.5047C14.396 23.5146 15.3728 24.3335 15.3826 25.4879C15.3728 26.6522 14.396 27.4613 13.064 27.4613C11.7221 27.4613 10.7355 26.6522 10.7355 25.4879C10.7355 24.3335 11.7221 23.5146 13.064 23.5047ZM13.064 24.2941C12.2451 24.2842 11.6432 24.7677 11.6531 25.4879C11.6432 26.2181 12.2451 26.7015 13.064 26.7015C13.873 26.7015 14.4749 26.2181 14.4749 25.4879C14.4749 24.7677 13.873 24.2842 13.064 24.2941ZM17.8888 23.2087V27.7079H16.9514V23.2087H17.8888ZM17.8888 28.1125V30.3423H13.0147V31.1908H18.1848V31.9407H12.1069V29.6418H16.9613V28.8623H12.0773V28.1125H17.8888Z" fill="#FF3B30"/>
<path d="M62.2479 23.2186V28.3986H61.3105V27.9743H59.5839V27.3823H61.3105V23.2186H62.2479ZM54.8775 26.4746C56.5844 26.4845 58.7551 26.4647 60.6593 26.2575L60.7087 26.8594C59.8749 26.9729 59.0116 27.0419 58.1631 27.0863V28.4183H57.2356V27.1258C56.4364 27.1455 55.6767 27.1505 54.986 27.1455L54.8775 26.4746ZM62.2479 28.6946V30.5988H57.1567V31.2796H62.5142V31.9604H56.2391V29.9772H61.3204V29.3458H56.1996V28.6946H62.2479ZM57.7487 23.3666C59.0609 23.3666 59.9489 23.8895 59.9588 24.6986C59.9489 25.5274 59.0609 26.0207 57.7487 26.0207C56.4068 26.0207 55.5287 25.5274 55.5385 24.6986C55.5287 23.8895 56.4068 23.3666 57.7487 23.3666ZM57.7487 23.9981C56.9297 23.9981 56.4167 24.2743 56.4167 24.6986C56.4167 25.1229 56.9297 25.3893 57.7487 25.3893C58.5479 25.3893 59.0708 25.1229 59.0708 24.6986C59.0708 24.2743 58.5479 23.9981 57.7487 23.9981Z" fill="#757575"/>
<path d="M106.163 23.2087V26.9087H107.495V27.6981H106.163V32.0492H105.226V23.2087H106.163ZM99.1283 29.6418C99.8239 29.6418 100.633 29.6418 101.477 29.6122V28.7143C100.48 28.5762 99.8288 27.9743 99.8387 27.1159C99.8288 26.1194 100.687 25.4583 101.95 25.4583C103.203 25.4583 104.071 26.1194 104.081 27.1159C104.071 27.9743 103.41 28.5811 102.414 28.7242V29.5727C103.198 29.5431 103.988 29.479 104.723 29.3754L104.782 30.066C102.868 30.4114 100.796 30.4212 99.2763 30.4212L99.1283 29.6418ZM104.594 24.2546V25.0045H99.296V24.2546H101.477V23.2285H102.414V24.2546H104.594ZM101.95 26.1885C101.21 26.1885 100.717 26.5535 100.717 27.1159C100.717 27.6783 101.21 28.0237 101.95 28.0237C102.69 28.0237 103.183 27.6783 103.183 27.1159C103.183 26.5535 102.69 26.1885 101.95 26.1885Z" fill="#757575"/>
<path d="M148.105 23.9882C148.095 25.1623 149.536 26.2674 151.272 26.4943L150.907 27.2639C149.462 27.0321 148.189 26.2822 147.622 25.2413C147.04 26.2871 145.772 27.0321 144.336 27.2639L143.961 26.4943C145.698 26.2674 147.119 25.1722 147.128 23.9882V23.5047H148.105V23.9882ZM151.637 28.1322V28.9018H148.046V32.0492H147.128V28.9018H143.576V28.1322H151.637Z" fill="#757575"/>
<path d="M194.951 23.5738V26.6029H192.405V27.629H195.977V28.3887H187.916V27.629H191.478V26.6029H188.942V23.5738H194.951ZM189.859 24.3138V25.853H194.023V24.3138H189.859ZM194.99 29.2274V32.0492H194.043V29.9674H188.814V29.2274H194.99Z" fill="#757575"/>
<path d="M238.264 23.6527V24.3237C238.264 25.0193 238.264 25.8086 238.037 26.8791H239.29V27.6487H231.2V26.8791H237.09C237.327 25.8481 237.337 25.0933 237.337 24.4223H232.216V23.6527H238.264ZM238.274 28.7735V31.9407H232.186V28.7735H238.274ZM233.104 29.5135V31.181H237.347V29.5135H233.104Z" fill="#757575"/>
<path d="M282.712 27.7375V28.4874H280.038V30.214H283.63V30.9836H275.539V30.214H279.101V28.4874H276.555V23.8895H282.623V24.6591H277.503V25.7938H282.436V26.5338H277.503V27.7375H282.712Z" fill="#487AFF"/>
<defs>
<clipPath id="clip0_11271_1012">
<rect width="15.1481" height="15.1481" fill="white" transform="translate(228.821 48.0208)"/>
</clipPath>
</defs>
</svg>
