<svg width="25" height="24" viewBox="0 0 25 24" fill="none" xmlns="http://www.w3.org/2000/svg">
<path d="M12.5 2C18.023 2 22.5 6.477 22.5 12C22.5 17.523 18.023 22 12.5 22C10.8822 22.0021 9.28829 21.6102 7.85601 20.858L3.56601 21.975C3.42266 22.0123 3.27205 22.0116 3.1291 21.9728C2.98615 21.934 2.85582 21.8585 2.75102 21.7538C2.64623 21.6491 2.57062 21.5188 2.53168 21.3759C2.49273 21.233 2.49181 21.0824 2.52901 20.939L3.64501 16.65C2.89085 15.2162 2.49782 13.6201 2.50001 12C2.50001 6.477 6.97701 2 12.5 2ZM13.752 13H9.25001L9.14801 13.007C8.9685 13.0317 8.804 13.1206 8.68492 13.2571C8.56584 13.3937 8.50024 13.5688 8.50024 13.75C8.50024 13.9312 8.56584 14.1063 8.68492 14.2429C8.804 14.3794 8.9685 14.4683 9.14801 14.493L9.25001 14.5H13.752L13.853 14.493C14.0325 14.4683 14.197 14.3794 14.3161 14.2429C14.4352 14.1063 14.5008 13.9312 14.5008 13.75C14.5008 13.5688 14.4352 13.3937 14.3161 13.2571C14.197 13.1206 14.0325 13.0317 13.853 13.007L13.752 13ZM15.75 9.5H9.25001L9.14801 9.507C8.9685 9.5317 8.804 9.62055 8.68492 9.75714C8.56584 9.89372 8.50024 10.0688 8.50024 10.25C8.50024 10.4312 8.56584 10.6063 8.68492 10.7429C8.804 10.8794 8.9685 10.9683 9.14801 10.993L9.25001 11H15.75L15.852 10.993C16.0315 10.9683 16.196 10.8794 16.3151 10.7429C16.4342 10.6063 16.4998 10.4312 16.4998 10.25C16.4998 10.0688 16.4342 9.89372 16.3151 9.75714C16.196 9.62055 16.0315 9.5317 15.852 9.507L15.75 9.5Z" fill="#212121"/>
</svg>
