<svg width="24" height="24" viewBox="0 0 24 24" fill="none" xmlns="http://www.w3.org/2000/svg">
<path d="M15.9569 3.39888L14.2279 5.12779L18.872 9.77158L20.6011 8.04266C21.4942 7.14963 20.7321 6.46497 19.839 5.57193L18.4314 4.16094C17.5383 3.2679 16.8536 2.50584 15.9605 3.39888H15.9569ZM13.4205 5.9351L5.09319 14.2653C4.72166 14.6368 4.45016 15.0976 4.30012 15.6013L3.03548 19.8986C2.94617 20.2022 3.02833 20.5273 3.24982 20.7488C3.47131 20.9702 3.7964 21.0524 4.09649 20.9667L8.39411 19.7021C8.89783 19.5521 9.35867 19.2806 9.7302 18.9091L18.0647 10.5789L13.4205 5.9351Z" fill="#9E9E9E"/>
</svg>
