<svg width="24" height="24" viewBox="0 0 24 24" fill="none" xmlns="http://www.w3.org/2000/svg">
<path d="M16.7361 5.91937C15.4675 4.6883 13.7693 3.99983 12.0016 4C11.1087 3.99979 10.2245 4.17551 9.39952 4.51711C8.57455 4.85871 7.82496 5.3595 7.19359 5.99088C6.56221 6.62226 6.06141 7.37184 5.71981 8.19682C5.37821 9.02179 5.2025 9.90598 5.20271 10.7989V14.0856L4.07036 16.9996L4.03677 17.0988C3.99489 17.2508 3.98869 17.4104 4.01866 17.5652C4.04864 17.72 4.11397 17.8658 4.20957 17.9912C4.30516 18.1166 4.42844 18.2182 4.56978 18.2882C4.71112 18.3581 4.86669 18.3944 5.02438 18.3943H18.9764L19.0804 18.3895C19.3326 18.3637 19.5663 18.2452 19.7362 18.057C19.9061 17.8688 20.0001 17.6242 20 17.3707L19.992 17.2451C19.9813 17.1609 19.9608 17.0793 19.9304 17.0004L18.7997 14.0864V10.7981H18.7965V10.5942C18.7437 8.82727 18.0046 7.15044 16.7361 5.91937Z" stroke="#424242" stroke-width="1.5" stroke-linejoin="round"/>
<path d="M14.4006 18.3942C14.4006 19.0304 14.1479 19.6406 13.698 20.0905C13.2481 20.5404 12.6378 20.7932 12.0016 20.7932C11.3653 20.7932 10.7551 20.5404 10.3052 20.0905C9.85529 19.6406 9.60254 19.0304 9.60254 18.3942L12.0016 18.3942H14.4006Z" stroke="#424242" stroke-width="1.5" stroke-linejoin="round"/>
</svg>
