<svg width="375" height="70" viewBox="0 0 375 70" fill="none" xmlns="http://www.w3.org/2000/svg">
<rect width="375" height="70" fill="#E0E0E0"/>
<path d="M195.044 26.8187C195.915 26.8187 196.763 26.9332 197.543 27.1625C198.322 27.3918 199.033 27.7591 199.698 28.2406L200.111 27.2767H204.17V40.347C204.17 41.3558 203.986 42.2956 203.619 43.1439C203.229 43.9694 202.702 44.7035 202.037 45.3226C201.349 45.9187 200.569 46.3767 199.652 46.7435C198.712 47.0645 197.704 47.2484 196.603 47.2943C195.617 47.3172 194.654 47.2257 193.737 47.0424C192.774 46.836 191.925 46.5151 191.191 46.0795C190.412 45.6209 189.793 45.0241 189.311 44.2904C188.807 43.5567 188.531 42.6624 188.463 41.6078H193.232C193.255 41.8828 193.347 42.1579 193.53 42.3871C193.691 42.5934 193.92 42.7774 194.195 42.9379C194.447 43.0754 194.746 43.1674 195.067 43.2592C195.388 43.3279 195.709 43.3734 196.052 43.3734C196.465 43.3734 196.901 43.3044 197.313 43.1898C197.703 43.0522 198.07 42.8918 198.391 42.6625C198.689 42.4103 198.941 42.1123 199.125 41.7914C199.308 41.4474 199.4 41.0571 199.4 40.6215V39.223C198.804 39.7962 198.139 40.232 197.383 40.5072C196.603 40.7594 195.847 40.8743 195.067 40.8744C194.058 40.8515 193.118 40.6679 192.247 40.347C191.353 39.9802 190.572 39.4979 189.93 38.9017C189.266 38.2827 188.761 37.5717 188.394 36.7006C188.005 35.8752 187.821 34.9348 187.821 33.8802C187.821 32.8259 188.004 31.8402 188.417 30.9691C188.784 30.0978 189.312 29.3636 190 28.7445C190.642 28.1485 191.421 27.6665 192.292 27.3226C193.163 27.0016 194.081 26.8187 195.044 26.8187ZM149.203 35.2845C149.646 35.2845 150.027 35.5489 150.198 35.9281C150.587 35.7805 151.043 35.8642 151.356 36.1771C151.669 36.4905 151.752 36.9465 151.604 37.3353C151.983 37.506 152.248 37.8865 152.248 38.3295C152.248 38.7723 151.984 39.1532 151.605 39.3236C151.753 39.7125 151.669 40.1688 151.356 40.4818C151.043 40.7952 150.587 40.8785 150.198 40.7308C150.027 41.1099 149.646 41.3743 149.204 41.3744C148.761 41.3744 148.38 41.1097 148.21 40.7308C147.821 40.8784 147.364 40.7957 147.052 40.4828C146.738 40.1695 146.656 39.7134 146.803 39.3246C146.424 39.1538 146.16 38.7725 146.16 38.3295H146.159C146.159 37.8865 146.423 37.506 146.802 37.3353C146.655 36.9465 146.738 36.4901 147.051 36.1771C147.364 35.8638 147.82 35.7804 148.209 35.9281C148.379 35.5491 148.76 35.2847 149.203 35.2845ZM212.149 34.3617C212.149 34.9348 212.218 35.4167 212.355 35.7836C212.493 36.1963 212.677 36.4947 212.906 36.724C213.135 36.9759 213.387 37.1362 213.708 37.2279C213.983 37.3425 214.281 37.389 214.602 37.389C215.29 37.389 215.886 37.182 216.39 36.7465C216.872 36.3338 217.194 35.7839 217.354 35.0961V27.2767H222.123V40.8744H218.042L217.675 39.9105C217.124 40.3462 216.483 40.691 215.795 40.9662C215.061 41.1954 214.396 41.3324 213.777 41.3324C212.86 41.3324 212.012 41.1949 211.232 40.9427C210.453 40.6676 209.764 40.2778 209.214 39.7963C208.618 39.2919 208.182 38.7188 207.861 38.0541C207.54 37.3891 207.38 36.6549 207.38 35.8295V27.2767H212.149V34.3617ZM231.654 26.8187C232.525 26.8187 233.374 26.9332 234.154 27.1625C234.933 27.3918 235.645 27.7592 236.309 28.2406L236.721 27.2767H240.78V40.8744H236.699L236.332 39.7738C235.69 40.3011 234.956 40.6911 234.177 40.9662C233.351 41.2184 232.526 41.3324 231.677 41.3324C230.6 41.3095 229.613 41.126 228.742 40.7592C227.848 40.3923 227.091 39.8884 226.449 39.2465C225.807 38.6045 225.303 37.8472 224.959 36.976C224.592 36.1047 224.431 35.1644 224.431 34.1097C224.431 33.0551 224.615 32.0688 225.005 31.1517C225.371 30.2805 225.876 29.5007 226.541 28.8588C227.183 28.2168 227.94 27.7129 228.834 27.3461C229.705 27.0022 230.645 26.8188 231.654 26.8187ZM132.01 30.2816L138.865 28.3783V22.6H143.635V40.8744H138.865V32.3217L132.01 34.2025V40.8744H127.24V22.6H132.01V30.2816ZM159.595 40.8744H154.827V22.6H159.595V40.8744ZM167.385 40.8744H162.648V30.2738H167.385V40.8744ZM179.116 26.8187C180.033 26.8187 180.881 26.9562 181.661 27.2084C182.44 27.4835 183.106 27.8733 183.702 28.3549C184.252 28.8592 184.711 29.4322 185.032 30.097C185.353 30.7849 185.513 31.5191 185.513 32.3217V40.8744H180.744V33.7894C180.744 33.2391 180.675 32.7568 180.538 32.3441C180.4 31.9774 180.216 31.6568 179.987 31.4047C179.758 31.1754 179.483 31.0144 179.208 30.8998C178.887 30.8081 178.589 30.7621 178.291 30.7621C177.603 30.7621 177.007 30.9686 176.525 31.3812C176.021 31.8168 175.676 32.3673 175.539 33.0551V40.8744H170.769V27.2767H174.851L175.218 28.2406C175.493 28.0343 175.791 27.8273 176.112 27.6439C176.433 27.4835 176.754 27.3459 177.121 27.2084C177.442 27.0937 177.786 27.0022 178.153 26.9105C178.474 26.8647 178.795 26.8187 179.116 26.8187ZM248.76 40.8744H243.991V22.6H248.76V40.8744ZM232.388 30.7855C231.425 30.7855 230.645 31.083 230.072 31.6791C229.476 32.2981 229.201 33.101 229.201 34.1097C229.201 35.0728 229.476 35.8759 230.072 36.472C230.645 37.0911 231.425 37.389 232.388 37.389C233.351 37.389 234.108 37.0909 234.704 36.472C235.277 35.8759 235.575 35.0728 235.575 34.1097C235.575 33.101 235.277 32.2981 234.704 31.6791C234.108 31.0832 233.351 30.7856 232.388 30.7855ZM195.777 30.7855C195.342 30.7856 194.929 30.8545 194.562 30.9691C194.173 31.1067 193.829 31.2897 193.553 31.5189C193.255 31.7941 193.025 32.1149 192.865 32.4818C192.682 32.8944 192.591 33.3531 192.591 33.8802C192.591 34.3845 192.682 34.8435 192.865 35.2103C193.025 35.6001 193.255 35.9215 193.553 36.1508C193.829 36.4259 194.173 36.6094 194.562 36.724C194.929 36.8615 195.342 36.93 195.777 36.9301C196.19 36.9301 196.603 36.8616 196.993 36.724C197.36 36.6093 197.704 36.4259 198.002 36.1508C198.277 35.9215 198.529 35.6001 198.713 35.2103C198.873 34.8435 198.965 34.3845 198.965 33.8802C198.965 33.3531 198.873 32.8944 198.713 32.4818C198.529 32.115 198.277 31.794 198.002 31.5189C197.704 31.2897 197.36 31.1067 196.993 30.9691C196.603 30.8545 196.19 30.7855 195.777 30.7855ZM151.571 33.2758H146.835V22.6752H151.571V33.2758ZM165.016 23.1761C165.459 23.1761 165.841 23.4399 166.01 23.8187C166.399 23.6712 166.856 23.7549 167.169 24.0677C167.482 24.3811 167.564 24.8372 167.417 25.226C167.796 25.3967 168.06 25.7772 168.06 26.2201H168.061C168.061 26.6631 167.797 27.0445 167.418 27.2152C167.565 27.6041 167.483 28.0605 167.17 28.3734C166.856 28.6867 166.4 28.7691 166.011 28.6215C165.841 29.0007 165.459 29.265 165.016 29.265C164.574 29.2648 164.193 29.0006 164.022 28.6215C163.633 28.7691 163.177 28.6863 162.864 28.3734C162.551 28.0601 162.468 27.6041 162.616 27.2152C162.237 27.0445 161.972 26.6631 161.972 26.2201C161.972 25.7772 162.236 25.3963 162.615 25.226C162.467 24.8371 162.551 24.3807 162.864 24.0677C163.177 23.7545 163.633 23.6721 164.022 23.8197C164.193 23.4405 164.574 23.1762 165.016 23.1761Z" fill="#BDBDBD"/>
</svg>
