<svg width="24" height="24" viewBox="0 0 24 24" fill="none" xmlns="http://www.w3.org/2000/svg">
<path d="M12 2C10.5466 2.00011 9.29424 2.86795 8.7334 4.11328C7.45611 3.6283 5.95797 3.90042 4.92871 4.92969C3.90112 5.95751 3.62846 7.45628 4.11328 8.7334C2.86913 9.29278 2.00109 10.5441 2.00098 11.999C2.00098 13.454 2.86876 14.7058 4.11426 15.2666C3.62946 16.5438 3.9015 18.0411 4.93066 19.0703C5.95845 20.0981 7.45717 20.3715 8.73438 19.8867C9.29522 21.1322 10.547 22 12.002 22C13.4568 21.9999 14.5191 21.2573 15.1309 20.1592L20.3281 21.5518C21.0716 21.7508 21.7518 21.0706 21.5527 20.3271L20.1602 15.1299L20.1592 15.1289C21.2573 14.5171 22 13.3452 22 11.999C21.9999 10.6529 21.1313 9.29318 19.8857 8.73242C20.3708 7.45512 20.0996 5.95701 19.0703 4.92773C18.041 3.89853 16.5429 3.6273 15.2656 4.1123C14.7062 2.86812 13.4536 2 12 2ZM13.001 13C13.5533 13 14.001 13.4477 14.001 14C14.001 14.5523 13.5533 15 13.001 15H9.00098C8.44869 15 8.00098 14.5523 8.00098 14C8.00098 13.4477 8.44869 13 9.00098 13H13.001ZM15.001 9C15.5533 9 16.001 9.44772 16.001 10C16.001 10.5523 15.5533 11 15.001 11H9.00098C8.44869 11 8.00098 10.5523 8.00098 10C8.00098 9.44772 8.44869 9 9.00098 9H15.001Z" fill="#E0E0E0"/>
</svg>
