<svg width="28" height="28" viewBox="0 0 28 28" fill="none" xmlns="http://www.w3.org/2000/svg">
<path d="M12.3663 16.0997L9.85801 13.5913C9.64412 13.3775 9.3719 13.2705 9.04134 13.2705C8.71079 13.2705 8.43857 13.3775 8.22468 13.5913C8.01079 13.8052 7.90384 14.0775 7.90384 14.408C7.90384 14.7386 8.01079 15.0108 8.22468 15.2247L11.5497 18.5497C11.783 18.783 12.0552 18.8997 12.3663 18.8997C12.6775 18.8997 12.9497 18.783 13.183 18.5497L19.7747 11.958C19.9886 11.7441 20.0955 11.4719 20.0955 11.1413C20.0955 10.8108 19.9886 10.5386 19.7747 10.3247C19.5608 10.1108 19.2886 10.0038 18.958 10.0038C18.6275 10.0038 18.3552 10.1108 18.1413 10.3247L12.3663 16.0997ZM13.9997 25.6663C12.3858 25.6663 10.8691 25.3599 9.44968 24.747C8.03023 24.1341 6.79551 23.3031 5.74551 22.2538C4.69551 21.2046 3.86445 19.9699 3.25234 18.5497C2.64023 17.1295 2.33379 15.6128 2.33301 13.9997C2.33223 12.3866 2.63868 10.8699 3.25234 9.44967C3.86601 8.02945 4.69706 6.79473 5.74551 5.74551C6.79395 4.69629 8.02868 3.86523 9.44968 3.25234C10.8707 2.63945 12.3873 2.33301 13.9997 2.33301C15.612 2.33301 17.1287 2.63945 18.5497 3.25234C19.9707 3.86523 21.2054 4.69629 22.2538 5.74551C23.3023 6.79473 24.1337 8.02945 24.7482 9.44967C25.3626 10.8699 25.6687 12.3866 25.6663 13.9997C25.664 15.6128 25.3576 17.1295 24.747 18.5497C24.1365 19.9699 23.3054 21.2046 22.2538 22.2538C21.2023 23.3031 19.9676 24.1345 18.5497 24.7482C17.1318 25.3618 15.6151 25.6679 13.9997 25.6663Z" fill="#E0E0E0"/>
</svg>
