<svg width="34" height="34" viewBox="0 0 34 34" fill="none" xmlns="http://www.w3.org/2000/svg">
<path d="M16.999 0.5C19.2663 0.500077 21.2215 1.85371 22.0947 3.7959L22.2871 4.22559L22.7275 4.05859C24.7216 3.3014 27.0585 3.72556 28.6641 5.33105C30.2696 6.93663 30.6937 9.27344 29.9365 11.2676L29.7695 11.708L30.1992 11.9014C32.1362 12.7736 33.498 14.9062 33.498 16.999C33.498 19.0986 32.34 20.9264 30.625 21.8818L30.0469 22.2041L30.4219 22.5791L33.292 33.292L22.4502 30.3877L22.0732 30.2871L21.8838 30.627C20.9239 32.3499 19.2772 33.5 17.001 33.5C14.7317 33.4999 12.779 32.1462 11.9033 30.2012L11.71 29.7725L11.2695 29.9395C9.27561 30.6964 6.93725 30.2693 5.33398 28.666C3.72849 27.0605 3.3035 24.7245 4.06055 22.7305L4.22754 22.29L3.79883 22.0967C1.85383 21.221 0.500077 19.2683 0.5 16.999C0.5 14.7295 1.85356 12.7766 3.7959 11.9033L4.22559 11.71L4.05859 11.2695C3.30158 9.2757 3.728 6.93727 5.33105 5.33398C6.93663 3.7284 9.27344 3.30333 11.2676 4.06055L11.708 4.22754L11.9014 3.79883C12.777 1.85388 14.7319 0.5 16.999 0.5Z" fill="white" stroke="#487AFF"/>
</svg>
