<svg width="20" height="20" viewBox="0 0 20 20" fill="none" xmlns="http://www.w3.org/2000/svg">
<path d="M14.4611 6.14531C14.7485 5.84743 15.2235 5.83859 15.5217 6.12578C15.8196 6.41306 15.8282 6.88808 15.5412 7.18632L8.31853 14.6863C8.27809 14.7283 8.23259 14.7633 8.18572 14.7937C8.1758 14.8002 8.16462 14.8044 8.15447 14.8103C8.12098 14.8299 8.0875 14.8481 8.05193 14.8621C8.03594 14.8684 8.01941 14.8726 8.0031 14.8777C7.97618 14.8862 7.94962 14.8948 7.92205 14.9002C7.89619 14.9053 7.87009 14.9066 7.84392 14.909C7.82172 14.9109 7.7998 14.9139 7.77752 14.9139C7.75491 14.9139 7.73266 14.911 7.71014 14.909C7.68398 14.9066 7.65785 14.9053 7.63201 14.9002C7.60911 14.8957 7.5871 14.8883 7.56463 14.8816C7.54204 14.8749 7.51925 14.869 7.49724 14.8602C7.46651 14.8478 7.43756 14.8318 7.40838 14.8152C7.39511 14.8077 7.38123 14.8012 7.36834 14.7928C7.32199 14.7625 7.27753 14.7279 7.23748 14.6863L3.62615 10.9363C3.33888 10.638 3.34754 10.1631 3.64568 9.87578C3.94398 9.58878 4.41896 9.59726 4.70623 9.89531L7.77752 13.0838L14.4611 6.14531Z" fill="#212121"/>
</svg>
