<svg width="24" height="24" viewBox="0 0 24 24" fill="none" xmlns="http://www.w3.org/2000/svg">
<g clip-path="url(#clip0_4283_80865)">
<path d="M12 2.25C15.9259 2.25 19.3327 4.83988 19.7148 8.34375C20.2989 8.50102 20.8147 8.84699 21.1826 9.32715C21.5505 9.8073 21.7501 10.3951 21.75 11V14C21.7502 14.6067 21.5496 15.1968 21.1797 15.6777C20.8098 16.1585 20.2914 16.5037 19.7051 16.6592C19.5461 17.7938 18.9818 18.8332 18.1172 19.585C17.2526 20.3365 16.1456 20.7502 15 20.75H13.8555C13.6815 21.1801 13.3629 21.5365 12.9551 21.7578C12.5472 21.9791 12.0747 22.0515 11.6191 21.9629C11.1638 21.8743 10.7532 21.6304 10.458 21.2725C10.1628 20.9143 10.001 20.4641 10.001 20C10.001 19.5359 10.1628 19.0857 10.458 18.7275C10.7532 18.3696 11.1638 18.1257 11.6191 18.0371C12.0747 17.9485 12.5472 18.0209 12.9551 18.2422C13.3629 18.4635 13.6815 18.8199 13.8555 19.25H15C15.7316 19.2502 16.4417 19.0034 17.0156 18.5498C17.5896 18.0961 17.9942 17.4619 18.1631 16.75H16C15.8011 16.75 15.6104 16.6709 15.4697 16.5303C15.3291 16.3896 15.25 16.1989 15.25 16V9C15.25 8.80109 15.3291 8.61038 15.4697 8.46973C15.6104 8.32907 15.8011 8.25 16 8.25H18.1846C17.7555 5.78003 15.241 3.75 12 3.75C8.75903 3.75 6.24447 5.78003 5.81543 8.25H8C8.19891 8.25 8.38962 8.32907 8.53027 8.46973C8.67093 8.61038 8.75 8.80109 8.75 9V16C8.75 16.1989 8.67093 16.3896 8.53027 16.5303C8.38962 16.6709 8.19891 16.75 8 16.75H5C4.27065 16.75 3.57139 16.4601 3.05566 15.9443C2.53994 15.4286 2.25 14.7293 2.25 14V11C2.24987 10.3951 2.4495 9.8073 2.81738 9.32715C3.18527 8.84699 3.70107 8.50102 4.28516 8.34375C4.6673 4.83988 8.0741 2.25 12 2.25ZM12 19.5C11.7239 19.5 11.5 19.7239 11.5 20C11.5 20.2761 11.7239 20.5 12 20.5C12.2761 20.5 12.5 20.2761 12.5 20C12.5 19.7239 12.2761 19.5 12 19.5ZM5 9.75C4.31 9.75 3.75 10.31 3.75 11V14C3.75 14.69 4.31 15.25 5 15.25H7.25V9.75H5ZM16.75 15.25H19C19.69 15.25 20.25 14.69 20.25 14V11C20.25 10.31 19.69 9.75 19 9.75H16.75V15.25Z" fill="#424242"/>
</g>
<defs>
<clipPath id="clip0_4283_80865">
<rect width="24" height="24" fill="white"/>
</clipPath>
</defs>
</svg>
