<svg width="16" height="16" viewBox="0 0 16 16" fill="none" xmlns="http://www.w3.org/2000/svg">
<rect width="16" height="16" rx="8" fill="white"/>
<path d="M8.68817 3.41302C8.68817 3.23054 8.61568 3.05553 8.48664 2.9265C8.35761 2.79747 8.1826 2.72498 8.00012 2.72498C7.81764 2.72498 7.64263 2.79747 7.5136 2.9265C7.38457 3.05553 7.31208 3.23054 7.31208 3.41302V7.31195H3.41314C3.23066 7.31195 3.05566 7.38444 2.92662 7.51348C2.79759 7.64251 2.7251 7.81752 2.7251 8C2.7251 8.18248 2.79759 8.35749 2.92662 8.48652C3.05566 8.61556 3.23066 8.68805 3.41314 8.68805H7.31208V12.587C7.31208 12.7695 7.38457 12.9445 7.5136 13.0735C7.64263 13.2025 7.81764 13.275 8.00012 13.275C8.1826 13.275 8.35761 13.2025 8.48664 13.0735C8.61568 12.9445 8.68817 12.7695 8.68817 12.587V8.68805H12.5871C12.7696 8.68805 12.9446 8.61556 13.0736 8.48652C13.2027 8.35749 13.2751 8.18248 13.2751 8C13.2751 7.81752 13.2027 7.64251 13.0736 7.51348C12.9446 7.38444 12.7696 7.31195 12.5871 7.31195H8.68817V3.41302Z" fill="#212121"/>
</svg>
