<svg width="20" height="20" viewBox="0 0 20 20" fill="none" xmlns="http://www.w3.org/2000/svg">
<path d="M14.8589 18.4312C13.8359 19.3986 12.7189 19.2459 11.6436 18.7876C10.5058 18.3191 9.46184 18.2988 8.26132 18.7876C6.75806 19.419 5.96468 19.2357 5.0669 18.4312C-0.0274651 13.3087 0.724163 5.50778 6.50752 5.22264C7.91682 5.29392 8.89812 5.97624 9.72282 6.03735C10.9547 5.79293 12.1343 5.09024 13.4496 5.1819C15.026 5.30411 16.2161 5.91514 16.999 7.015C13.7419 8.91939 14.5144 13.105 17.5001 14.2761C16.905 15.8037 16.1325 17.3211 14.8485 18.4413L14.8589 18.4312ZM9.61843 5.16153C9.46184 2.89052 11.3513 1.01668 13.5227 0.833374C13.8255 3.46082 11.0799 5.41613 9.61843 5.16153Z" fill="white"/>
</svg>
