<svg width="16" height="16" viewBox="0 0 16 16" fill="none" xmlns="http://www.w3.org/2000/svg">
<path d="M2.83333 8.03328C2.6 8.03328 2.414 7.94994 2.27533 7.78328C2.13666 7.61661 2.09489 7.42216 2.15 7.19994C2.21666 6.92216 2.30555 6.6555 2.41666 6.39994C2.52778 6.14439 2.65555 5.89439 2.8 5.64994C2.91111 5.46105 3.07511 5.3555 3.292 5.33328C3.50889 5.31105 3.70044 5.37772 3.86666 5.53328C3.96666 5.63328 4.02778 5.75839 4.05 5.90861C4.07222 6.05883 4.04444 6.19483 3.96666 6.31661C3.85555 6.5055 3.75844 6.70283 3.67533 6.90861C3.59222 7.11439 3.52266 7.32261 3.46666 7.53328C3.43333 7.67772 3.35266 7.79728 3.22466 7.89194C3.09666 7.98661 2.96622 8.03372 2.83333 8.03328ZM7.3 13.8333C7.3 14.0777 7.21666 14.2666 7.05 14.3999C6.88333 14.5333 6.68889 14.5722 6.46666 14.5166C6.2 14.4388 5.93889 14.3473 5.68333 14.2419C5.42778 14.1366 5.17222 14.0115 4.91666 13.8666C4.72778 13.7555 4.62222 13.5917 4.6 13.3753C4.57778 13.1588 4.64444 12.9671 4.8 12.7999C4.9 12.6999 5.02511 12.6388 5.17533 12.6166C5.32555 12.5944 5.46155 12.6222 5.58333 12.6999C5.77222 12.8111 5.96955 12.9084 6.17533 12.9919C6.38111 13.0755 6.58933 13.1448 6.8 13.1999C6.94444 13.2333 7.064 13.3139 7.15866 13.4419C7.25333 13.5699 7.30044 13.7004 7.3 13.8333ZM3.86666 11.8666C3.7 12.0222 3.50844 12.0888 3.292 12.0666C3.07555 12.0444 2.91155 11.9388 2.8 11.7499C2.65555 11.4944 2.53066 11.2388 2.42533 10.9833C2.32 10.7277 2.22822 10.4666 2.15 10.1999C2.09444 9.97772 2.13333 9.78328 2.26666 9.61661C2.4 9.44994 2.58889 9.36661 2.83333 9.36661C2.97778 9.36661 3.11111 9.41394 3.23333 9.50861C3.35555 9.60328 3.43333 9.72261 3.46666 9.86661C3.52222 10.0777 3.59155 10.2862 3.67466 10.4919C3.75778 10.6977 3.85511 10.8948 3.96666 11.0833C4.04444 11.2055 4.07222 11.3444 4.05 11.4999C4.02778 11.6555 3.96666 11.7777 3.86666 11.8666ZM9.45 14.4999C9.22778 14.5555 9.03622 14.5166 8.87533 14.3833C8.71444 14.2499 8.63378 14.0666 8.63333 13.8333C8.63333 13.6888 8.68067 13.5555 8.77533 13.4333C8.87 13.3111 8.98933 13.2333 9.13333 13.1999C10.1556 12.9333 10.9944 12.3859 11.65 11.5579C12.3056 10.7299 12.6333 9.77728 12.6333 8.69994C12.6333 7.39994 12.1807 6.29728 11.2753 5.39194C10.37 4.48661 9.26711 4.03372 7.96666 4.03328H7.83333L8.43333 4.63328C8.55555 4.7555 8.61666 4.91105 8.61666 5.09994C8.61666 5.28883 8.55555 5.44439 8.43333 5.56661C8.31111 5.68883 8.15555 5.74994 7.96666 5.74994C7.77778 5.74994 7.62222 5.68883 7.5 5.56661L5.76666 3.83328C5.7 3.76661 5.65267 3.69439 5.62467 3.61661C5.59667 3.53883 5.58289 3.4555 5.58333 3.36661C5.58378 3.27772 5.59778 3.19439 5.62533 3.11661C5.65289 3.03883 5.7 2.96661 5.76666 2.89994L7.48333 1.16661C7.61667 1.04439 7.77778 0.983276 7.96666 0.983276C8.15555 0.983276 8.31111 1.04439 8.43333 1.16661C8.56666 1.29994 8.63333 1.46105 8.63333 1.64994C8.63333 1.83883 8.57222 1.99439 8.45 2.11661L7.86666 2.69994H7.96666C9.63333 2.69994 11.05 3.28328 12.2167 4.44994C13.3833 5.61661 13.9667 7.03328 13.9667 8.69994C13.9667 10.0777 13.5444 11.2999 12.7 12.3666C11.8556 13.4333 10.7722 14.1444 9.45 14.4999Z" fill="white"/>
</svg>
