<svg width="24" height="24" viewBox="0 0 24 24" fill="none" xmlns="http://www.w3.org/2000/svg">
<path fill-rule="evenodd" clip-rule="evenodd" d="M2.25 6C2.25 5.80109 2.32902 5.61032 2.46967 5.46967C2.61032 5.32902 2.80109 5.25 3 5.25H21C21.1989 5.25 21.3897 5.32902 21.5303 5.46967C21.671 5.61032 21.75 5.80109 21.75 6C21.75 6.19891 21.671 6.38968 21.5303 6.53033C21.3897 6.67098 21.1989 6.75 21 6.75H3C2.80109 6.75 2.61032 6.67098 2.46967 6.53033C2.32902 6.38968 2.25 6.19891 2.25 6ZM2.25 10C2.25 9.80109 2.32902 9.61032 2.46967 9.46967C2.61032 9.32902 2.80109 9.25 3 9.25H21C21.1989 9.25 21.3897 9.32902 21.5303 9.46967C21.671 9.61032 21.75 9.80109 21.75 10C21.75 10.1989 21.671 10.3897 21.5303 10.5303C21.3897 10.671 21.1989 10.75 21 10.75H3C2.80109 10.75 2.61032 10.671 2.46967 10.5303C2.32902 10.3897 2.25 10.1989 2.25 10ZM2.25 14C2.25 13.8011 2.32902 13.6103 2.46967 13.4697C2.61032 13.329 2.80109 13.25 3 13.25H11C11.1989 13.25 11.3897 13.329 11.5303 13.4697C11.671 13.6103 11.75 13.8011 11.75 14C11.75 14.1989 11.671 14.3897 11.5303 14.5303C11.3897 14.671 11.1989 14.75 11 14.75H3C2.80109 14.75 2.61032 14.671 2.46967 14.5303C2.32902 14.3897 2.25 14.1989 2.25 14ZM2.25 18C2.25 17.8011 2.32902 17.6103 2.46967 17.4697C2.61032 17.329 2.80109 17.25 3 17.25H11C11.1989 17.25 11.3897 17.329 11.5303 17.4697C11.671 17.6103 11.75 17.8011 11.75 18C11.75 18.1989 11.671 18.3897 11.5303 18.5303C11.3897 18.671 11.1989 18.75 11 18.75H3C2.80109 18.75 2.61032 18.671 2.46967 18.5303C2.32902 18.3897 2.25 18.1989 2.25 18Z" fill="#121212"/>
<path d="M17.2687 19.4994C17.07 19.4994 16.8793 19.4205 16.7387 19.28L14.2387 16.78C14.165 16.7114 14.1059 16.6286 14.0649 16.5366C14.0239 16.4446 14.0019 16.3453 14.0001 16.2446C13.9983 16.1439 14.0169 16.0438 14.0546 15.9505C14.0923 15.8571 14.1485 15.7722 14.2197 15.701C14.2909 15.6298 14.3757 15.5736 14.4691 15.5359C14.5625 15.4982 14.6625 15.4797 14.7632 15.4815C14.8639 15.4832 14.9632 15.5053 15.0552 15.5463C15.1472 15.5873 15.23 15.6464 15.2987 15.72L16.5187 16.94V12.75C16.5187 12.5511 16.5977 12.3604 16.7384 12.2197C16.879 12.0791 17.0698 12 17.2687 12C17.4676 12 17.6584 12.0791 17.799 12.2197C17.9397 12.3604 18.0187 12.5511 18.0187 12.75V16.94L19.2387 15.72C19.3074 15.6464 19.3902 15.5873 19.4822 15.5463C19.5742 15.5053 19.6735 15.4832 19.7742 15.4815C19.8749 15.4797 19.9749 15.4982 20.0683 15.5359C20.1617 15.5736 20.2465 15.6298 20.3177 15.701C20.389 15.7722 20.4451 15.8571 20.4828 15.9505C20.5206 16.0438 20.5391 16.1439 20.5373 16.2446C20.5355 16.3453 20.5135 16.4446 20.4725 16.5366C20.4315 16.6286 20.3724 16.7114 20.2987 16.78L17.7987 19.28C17.6581 19.4205 17.4675 19.4994 17.2687 19.4994Z" fill="#121212"/>
</svg>
