<svg width="200" height="50" viewBox="0 0 200 50" fill="none" xmlns="http://www.w3.org/2000/svg">
<path d="M37.6724 27.3114C38.5081 27.3114 39.2063 27.8866 39.3911 28.6591C39.647 28.5163 39.9428 28.4354 40.2573 28.4354C41.2339 28.4355 42.0259 29.2202 42.0259 30.1884C42.0259 30.4694 41.957 30.7341 41.8384 30.9696C42.456 31.243 42.8872 31.8563 42.8872 32.5702C42.8872 33.2583 42.4858 33.8516 41.9038 34.1385C41.9812 34.3356 42.0259 34.5492 42.0259 34.7733C42.0259 35.7415 41.2339 36.5261 40.2573 36.5262C39.947 36.5262 39.6554 36.4467 39.4019 36.3075C39.2326 37.1008 38.523 37.6962 37.6724 37.6962C36.8291 37.6962 36.1248 37.111 35.9478 36.328C35.7037 36.454 35.4265 36.5262 35.1323 36.5262C34.1558 36.526 33.3638 35.7414 33.3638 34.7733C33.3638 34.5493 33.4076 34.3355 33.4849 34.1385C32.9031 33.8515 32.5025 33.2581 32.5024 32.5702C32.5024 31.8565 32.933 31.2432 33.5503 30.9696C33.4318 30.7343 33.3638 30.4693 33.3638 30.1884C33.3638 29.2203 34.1558 28.4357 35.1323 28.4354C35.4306 28.4354 35.712 28.5083 35.9585 28.6376C36.151 27.8759 36.8444 27.3114 37.6724 27.3114Z" fill="white"/>
<path d="M63.3079 2C64.1439 2 64.8422 2.5757 65.0266 3.34863C65.2827 3.20567 65.578 3.12405 65.8928 3.12402C66.8695 3.12402 67.6614 3.90874 67.6614 4.87695C67.6613 5.15809 67.5926 5.42271 67.4739 5.6582C68.0918 5.9315 68.5237 6.54468 68.5237 7.25879C68.5236 7.9468 68.1222 8.5402 67.5403 8.82715C67.6175 9.02408 67.6614 9.23791 67.6614 9.46191C67.6612 10.43 66.8695 11.2148 65.8928 11.2148C65.5823 11.2148 65.291 11.1345 65.0374 10.9951C64.8684 11.7887 64.1587 12.3848 63.3079 12.3848C62.4648 12.3847 61.7604 11.7994 61.5833 11.0166C61.3394 11.1423 61.0626 11.2148 60.7688 11.2148C59.7924 11.2146 59.0014 10.4299 59.0012 9.46191C59.0012 9.23799 59.0441 9.02402 59.1213 8.82715C58.5396 8.54013 58.139 7.94664 58.1389 7.25879C58.1389 6.54484 58.57 5.93159 59.1877 5.6582C59.0691 5.42278 59.0013 5.15799 59.0012 4.87695C59.0012 3.90889 59.7923 3.12426 60.7688 3.12402C61.0668 3.12402 61.3477 3.19717 61.594 3.32617C61.7864 2.56454 62.4799 2.00007 63.3079 2Z" fill="white"/>
<path d="M198 7.24268V36.7178H190.308V7.24268H198Z" fill="white"/>
<path d="M178.584 14.7895H185.13V36.7201H178.547L177.955 34.9449C176.92 35.7955 175.736 36.4242 174.479 36.868C173.147 37.2748 171.816 37.4597 170.448 37.4597C168.71 37.4228 167.119 37.1269 165.714 36.5352C164.272 35.9435 163.051 35.1298 162.016 34.0943C160.98 33.0588 160.167 31.8384 159.612 30.4331C159.02 29.0277 158.761 27.5114 158.761 25.8102C158.761 24.1091 159.057 22.5188 159.686 21.0395C160.278 19.6342 161.091 18.3768 162.164 17.3413C163.199 16.3057 164.42 15.4921 165.862 14.9004C167.267 14.3457 168.783 14.0498 170.411 14.0498C171.816 14.0498 173.184 14.2347 174.442 14.6045C175.699 14.9744 176.846 15.5661 177.918 16.3427L178.584 14.7895ZM171.594 31.0988C173.147 31.0988 174.368 30.618 175.329 29.6194C176.254 28.6579 176.735 27.3635 176.735 25.8102C176.735 24.183 176.254 22.8886 175.329 21.8901C174.368 20.9286 173.147 20.4478 171.594 20.4478C170.041 20.4478 168.783 20.9286 167.859 21.8901C166.897 22.8886 166.454 24.183 166.454 25.8102C166.454 27.3635 166.897 28.6579 167.859 29.6194C168.783 30.618 170.041 31.0988 171.594 31.0988Z" fill="white"/>
<path d="M147.863 35.1652C146.976 35.8679 145.94 36.4226 144.831 36.8664C143.647 37.2362 142.575 37.4581 141.576 37.4581C140.097 37.4581 138.729 37.2362 137.471 36.8294C136.214 36.3856 135.104 35.7569 134.217 34.9803C133.255 34.1667 132.552 33.2421 132.035 32.1696C131.517 31.0971 131.258 29.9137 131.258 28.5823V14.7878H138.95V26.2154C138.95 27.14 139.061 27.9166 139.283 28.5084C139.505 29.174 139.801 29.6548 140.171 30.0246C140.541 30.4315 140.947 30.6903 141.465 30.8383C141.909 31.0232 142.39 31.0971 142.908 31.0971C144.017 31.0971 144.979 30.7643 145.792 30.0616C146.569 29.3959 147.087 28.5084 147.345 27.3989V14.7878H155.038V36.7185H148.455L147.863 35.1652Z" fill="white"/>
<path d="M126.08 35.8695C126.08 37.4967 125.784 39.013 125.193 40.3814C124.564 41.7127 123.713 42.8962 122.641 43.8947C121.531 44.8563 120.274 45.5959 118.795 46.1876C117.278 46.7054 115.651 47.0012 113.876 47.0752C112.286 47.1122 110.732 46.9643 109.253 46.6684C107.7 46.3356 106.332 45.8178 105.148 45.1151C103.891 44.3755 102.892 43.4139 102.116 42.2305C101.302 41.0471 100.858 39.6047 100.747 37.9035H108.44C108.477 38.3473 108.624 38.7911 108.92 39.1609C109.179 39.4938 109.549 39.7896 109.993 40.0485C110.4 40.2704 110.88 40.4184 111.398 40.5663C111.916 40.6772 112.434 40.7512 112.988 40.7512C113.654 40.7512 114.357 40.6402 115.022 40.4553C115.651 40.2334 116.243 39.9746 116.761 39.6047C117.241 39.1979 117.648 38.7172 117.944 38.1994C118.24 37.6447 118.388 37.016 118.388 36.3133V34.0574C117.426 34.9819 116.354 35.6846 115.133 36.1284C113.876 36.5352 112.656 36.7201 111.398 36.7201C109.771 36.6831 108.255 36.3873 106.849 35.8695C105.407 35.2778 104.15 34.5011 103.114 33.5396C102.042 32.5411 101.228 31.3946 100.636 29.9893C100.008 28.6579 99.7117 27.1416 99.7117 25.4404C99.7117 23.7392 100.008 22.149 100.673 20.7436C101.265 19.3383 102.116 18.1549 103.225 17.1563C104.261 16.1948 105.518 15.4182 106.923 14.8634C108.329 14.3457 109.808 14.0498 111.361 14.0498C112.767 14.0498 114.135 14.2347 115.392 14.6045C116.65 14.9744 117.796 15.5661 118.869 16.3427L119.534 14.7895H126.08V35.8695ZM112.545 30.3591C113.21 30.3591 113.876 30.2482 114.505 30.0263C115.096 29.8413 115.651 29.5455 116.132 29.1017C116.576 28.7319 116.983 28.2141 117.278 27.5854C117.537 26.9937 117.685 26.254 117.685 25.4404C117.685 24.5898 117.537 23.8502 117.278 23.1845C116.983 22.5928 116.576 22.075 116.132 21.6312C115.651 21.2614 115.096 20.9655 114.505 20.7436C113.876 20.5587 113.21 20.4478 112.545 20.4478C111.842 20.4478 111.176 20.5587 110.585 20.7436C109.956 20.9655 109.401 21.2614 108.957 21.6312C108.477 22.075 108.107 22.5928 107.848 23.1845C107.552 23.8502 107.404 24.5898 107.404 25.4404C107.404 26.254 107.552 26.9937 107.848 27.5854C108.107 28.2141 108.477 28.7319 108.957 29.1017C109.401 29.5455 109.956 29.8413 110.585 30.0263C111.176 30.2482 111.842 30.3591 112.545 30.3591Z" fill="white"/>
<path d="M79.3838 16.3427C79.8276 16.0099 80.3084 15.677 80.8262 15.3812C81.3439 15.1223 81.8617 14.9004 82.4534 14.6785C82.9711 14.4936 83.5259 14.3457 84.1176 14.1977C84.6354 14.1238 85.1531 14.0498 85.6709 14.0498C87.1502 14.0498 88.5185 14.2717 89.7759 14.6785C91.0333 15.1223 92.1058 15.751 93.0674 16.5276C93.955 17.3413 94.6946 18.2658 95.2124 19.3383C95.7301 20.4478 95.989 21.6312 95.989 22.9256V36.7201H88.2966V25.2925C88.2966 24.4049 88.1857 23.6283 87.9638 22.9626C87.7419 22.3709 87.446 21.8531 87.0762 21.4463C86.7064 21.0765 86.2626 20.8176 85.8188 20.6327C85.301 20.4848 84.8203 20.4108 84.3395 20.4108C83.23 20.4108 82.2685 20.7436 81.4918 21.4093C80.6782 22.112 80.1235 22.9996 79.9016 24.1091V36.7201H72.2092V14.7895H78.7921L79.3838 16.3427Z" fill="white"/>
<path d="M67.0444 14.7878V36.7185H59.3521V14.7878H67.0444Z" fill="white"/>
<path d="M54.1875 7.24268V36.7178H46.4951V7.24268H54.1875Z" fill="white"/>
<path d="M33.8405 24.1927L33.8405 7.27732L40.8057 7.27732L40.8057 24.1927L33.8405 24.1927Z" fill="white"/>
<path d="M20.7501 36.7178V22.9233L9.69237 25.9558V36.7178H2V7.24268H9.69237V19.6318L20.7501 16.5623V7.24268H28.4425V36.7178H20.7501Z" fill="white"/>
</svg>
