<svg width="200" height="50" viewBox="0 0 200 50" fill="none" xmlns="http://www.w3.org/2000/svg">
<path d="M111.361 11.8037C112.766 11.8038 114.134 11.9887 115.392 12.3584C116.649 12.7282 117.796 13.3201 118.868 14.0967L119.534 12.5439H126.08V33.624C126.08 35.2512 125.784 36.7674 125.192 38.1357C124.564 39.4671 123.713 40.6509 122.641 41.6494C121.531 42.6109 120.273 43.3507 118.794 43.9424C117.278 44.46 115.651 44.7551 113.876 44.8291C112.286 44.8661 110.732 44.7187 109.253 44.4229C107.7 44.09 106.331 43.5718 105.147 42.8691C103.89 42.1295 102.892 41.1677 102.115 39.9844C101.302 38.8011 100.858 37.3591 100.747 35.6582H108.439C108.476 36.1018 108.624 36.5454 108.92 36.915C109.179 37.2478 109.549 37.5439 109.992 37.8027C110.399 38.0246 110.88 38.1724 111.397 38.3203C111.915 38.4313 112.434 38.5059 112.988 38.5059C113.654 38.5058 114.357 38.3949 115.022 38.21C115.651 37.9881 116.243 37.7292 116.761 37.3594C117.241 36.9527 117.648 36.4716 117.943 35.9541C118.239 35.3994 118.388 34.7701 118.388 34.0674V31.8115C117.426 32.7361 116.353 33.439 115.133 33.8828C113.876 34.2896 112.655 34.4746 111.397 34.4746C109.77 34.4376 108.254 34.1417 106.849 33.624C105.406 33.0323 104.149 32.2554 103.113 31.2939C102.041 30.2955 101.227 29.1484 100.636 27.7432C100.007 26.4119 99.7109 24.8954 99.7109 23.1943C99.711 21.4933 100.007 19.9033 100.673 18.498C101.265 17.0927 102.115 15.9087 103.225 14.9102C104.26 13.9487 105.518 13.1729 106.923 12.6182C108.328 12.1004 109.808 11.8037 111.361 11.8037ZM138.95 23.9717C138.95 24.8959 139.061 25.6721 139.283 26.2637C139.505 26.9292 139.8 27.4105 140.17 27.7803C140.54 28.1871 140.947 28.4458 141.465 28.5938C141.909 28.7787 142.389 28.8525 142.907 28.8525C144.017 28.8525 144.978 28.52 145.792 27.8174C146.569 27.1517 147.086 26.2637 147.345 25.1543V12.5439H155.037V34.4746H148.454L147.862 32.9209C146.975 33.6235 145.939 34.1783 144.83 34.6221C143.647 34.9918 142.575 35.2138 141.576 35.2139C140.097 35.2139 138.728 34.9918 137.471 34.585C136.213 34.1412 135.103 33.513 134.216 32.7363C133.254 31.9228 132.552 30.9981 132.034 29.9258C131.516 28.8533 131.258 27.6693 131.258 26.3379V12.5439H138.95V23.9717ZM170.41 11.8037C171.815 11.8037 173.184 11.9886 174.441 12.3584C175.699 12.7282 176.845 13.32 177.918 14.0967L178.583 12.5439H185.129V34.4746H178.546L177.955 32.6992C176.92 33.5498 175.736 34.1783 174.479 34.6221C173.147 35.0289 171.816 35.2139 170.447 35.2139C168.709 35.1769 167.119 34.8807 165.714 34.2891C164.272 33.6974 163.051 32.884 162.016 31.8486C160.98 30.8132 160.166 29.5928 159.611 28.1875C159.02 26.7822 158.761 25.2657 158.761 23.5645C158.761 21.8633 159.057 20.2732 159.686 18.7939C160.277 17.3886 161.091 16.1312 162.163 15.0957C163.199 14.0602 164.419 13.246 165.861 12.6543C167.267 12.0996 168.783 11.8037 170.41 11.8037ZM9.69238 17.3896L20.75 14.3193V5H28.4424V34.4756H20.75V20.6807L9.69238 23.7129V34.4756H2V5H9.69238V17.3896ZM37.4248 24.6533C38.1392 24.6533 38.7539 25.0789 39.0293 25.6904C39.6564 25.4525 40.3928 25.5871 40.8975 26.0918C41.4026 26.5972 41.536 27.3329 41.2979 27.96C41.9093 28.2354 42.3359 28.85 42.3359 29.5645C42.3358 30.2788 41.9087 30.8933 41.2979 31.168C41.536 31.7952 41.4022 32.5314 40.8975 33.0361C40.392 33.5414 39.6564 33.6747 39.0293 33.4365C38.7539 34.048 38.1394 34.4745 37.4258 34.4746C36.712 34.4746 36.0963 34.0484 35.8223 33.4375C35.1951 33.6755 34.4588 33.5408 33.9541 33.0361C33.449 32.5307 33.3156 31.7951 33.5537 31.168C32.9423 30.8926 32.5158 30.2787 32.5156 29.5645H32.5137C32.5137 28.85 32.9402 28.2354 33.5518 27.96C33.3136 27.3328 33.4477 26.5966 33.9521 26.0918C34.4575 25.5864 35.1932 25.4524 35.8203 25.6904C36.0958 25.0789 36.7104 24.6533 37.4248 24.6533ZM54.1865 34.4746H46.4941V5H54.1865V34.4746ZM66.75 34.4746H59.1104V17.3779H66.75V34.4746ZM85.6709 11.8037C87.1502 11.8037 88.519 12.0258 89.7764 12.4326C91.0336 12.8764 92.1059 13.5057 93.0674 14.2822C93.9549 15.0958 94.6942 16.0204 95.2119 17.0928C95.7296 18.2022 95.9892 19.3854 95.9893 20.6797V34.4746H88.2969V23.0469C88.2969 22.1593 88.1858 21.3825 87.9639 20.7168C87.742 20.1251 87.446 19.607 87.0762 19.2002C86.7064 18.8305 86.2621 18.5716 85.8184 18.3867C85.3009 18.2389 84.8204 18.1651 84.3398 18.165C83.2304 18.165 82.2688 18.4984 81.4922 19.1641C80.6786 19.8667 80.1233 20.7538 79.9014 21.8633V34.4746H72.209V12.5439H78.792L79.3838 14.0967C79.8275 13.7639 80.3085 13.4316 80.8262 13.1357C81.3439 12.8769 81.8615 12.6545 82.4531 12.4326C82.9708 12.2478 83.5256 12.1 84.1172 11.9521C84.6349 11.8782 85.1531 11.8037 85.6709 11.8037ZM198 34.4746H190.308V5H198V34.4746ZM171.594 18.2021C170.04 18.2021 168.783 18.683 167.858 19.6445C166.897 20.643 166.453 21.9373 166.453 23.5645C166.453 25.1177 166.897 26.4125 167.858 27.374C168.783 28.3725 170.041 28.8535 171.594 28.8535C173.147 28.8535 174.368 28.3725 175.329 27.374C176.254 26.4125 176.734 25.1177 176.734 23.5645C176.734 21.9374 176.254 20.643 175.329 19.6445C174.368 18.683 173.147 18.2022 171.594 18.2021ZM112.544 18.2021C111.841 18.2022 111.176 18.3132 110.584 18.498C109.955 18.7199 109.401 19.016 108.957 19.3857C108.476 19.8294 108.107 20.3469 107.848 20.9385C107.552 21.6041 107.403 22.3439 107.403 23.1943C107.403 24.008 107.552 24.7481 107.848 25.3398C108.107 25.9685 108.476 26.4867 108.957 26.8564C109.401 27.3 109.956 27.5954 110.584 27.7803C111.176 28.0021 111.841 28.1132 112.544 28.1133C113.21 28.1133 113.875 28.0021 114.504 27.7803C115.096 27.5954 115.651 27.3002 116.132 26.8564C116.576 26.4866 116.982 25.9685 117.278 25.3398C117.537 24.7481 117.685 24.008 117.685 23.1943C117.685 22.3439 117.537 21.6041 117.278 20.9385C116.983 20.3469 116.576 19.8294 116.132 19.3857C115.651 19.0159 115.096 18.7199 114.504 18.498C113.875 18.3132 113.209 18.2021 112.544 18.2021ZM41.2432 22.2188H33.6045V5.12207H41.2432V22.2188ZM62.9297 5.12207C63.6433 5.12207 64.2581 5.54842 64.5322 6.15918C65.1594 5.921 65.8956 6.05576 66.4004 6.56055C66.9058 7.066 67.0389 7.80147 66.8008 8.42871C67.4124 8.70411 67.8389 9.31866 67.8389 10.0332H67.8408C67.8406 10.7474 67.415 11.3613 66.8037 11.6367C67.0419 12.264 66.9071 13.0001 66.4023 13.5049C65.8969 14.0103 65.1614 14.1444 64.5342 13.9062C64.2587 14.5176 63.6449 14.9442 62.9307 14.9443C62.2163 14.9443 61.6016 14.5178 61.3262 13.9062C60.699 14.1444 59.9627 14.0096 59.458 13.5049C58.9528 12.9994 58.8195 12.2639 59.0576 11.6367C58.4461 11.3614 58.0197 10.7475 58.0195 10.0332C58.0195 9.31867 58.4457 8.70344 59.0566 8.42871C58.8187 7.80155 58.9524 7.06523 59.457 6.56055C59.9624 6.05517 60.698 5.92212 61.3252 6.16016C61.6006 5.54847 62.2159 5.12208 62.9297 5.12207Z" fill="white"/>
</svg>
