<svg width="74" height="74" viewBox="0 0 74 74" fill="none" xmlns="http://www.w3.org/2000/svg">
<rect width="74" height="74" fill="#F5F5F5"/>
<path d="M32.1532 30.615C32.1532 31.5534 31.7804 32.4534 31.1168 33.117C30.4533 33.7805 29.5533 34.1533 28.6149 34.1533C27.6764 34.1533 26.7765 33.7805 26.1129 33.117C25.4493 32.4534 25.0765 31.5534 25.0765 30.615C25.0765 29.6766 25.4493 28.7766 26.1129 28.113C26.7765 27.4494 27.6764 27.0767 28.6149 27.0767C29.5533 27.0767 30.4533 27.4494 31.1168 28.113C31.7804 28.7766 32.1532 29.6766 32.1532 30.615Z" fill="#E0E0E0"/>
<path d="M22.7178 20C21.4665 20 20.2666 20.497 19.3818 21.3818C18.497 22.2666 18 23.4665 18 24.7178V48.3066C18 49.5578 18.497 50.7578 19.3818 51.6425C20.2666 52.5273 21.4665 53.0243 22.7178 53.0243H51.0243C52.2756 53.0243 53.4755 52.5273 54.3603 51.6425C55.245 50.7578 55.7421 49.5578 55.7421 48.3066V24.7178C55.7421 23.4665 55.245 22.2666 54.3603 21.3818C53.4755 20.497 52.2756 20 51.0243 20H22.7178ZM51.0243 22.3589C51.6499 22.3589 52.2499 22.6074 52.6923 23.0498C53.1347 23.4922 53.3832 24.0921 53.3832 24.7178V40.0505L44.4737 35.4577C44.2525 35.3469 44.002 35.3085 43.7578 35.3479C43.5135 35.3872 43.2878 35.5024 43.1126 35.6771L34.3612 44.4286L28.0866 40.2486C27.86 40.0978 27.5883 40.03 27.3174 40.0566C27.0466 40.0833 26.7933 40.2028 26.6005 40.3949L20.3589 45.9477V24.7178C20.3589 24.0921 20.6074 23.4922 21.0498 23.0498C21.4922 22.6074 22.0921 22.3589 22.7178 22.3589H51.0243Z" fill="#E0E0E0"/>
<path d="M63 24.0726C63 29.0833 58.938 33.1452 53.9274 33.1452C48.9167 33.1452 44.8547 29.0833 44.8547 24.0726C44.8547 19.0619 48.9167 15 53.9274 15C58.938 15 63 19.0619 63 24.0726Z" fill="#F5F5F5"/>
<path d="M59.5523 24.2199C59.5523 21.1947 57.0999 18.7423 54.0747 18.7423C51.0495 18.7423 48.5971 21.1947 48.5971 24.2199C48.5971 27.2451 51.0495 29.6975 54.0747 29.6975C57.0999 29.6975 59.5523 27.2451 59.5523 24.2199ZM61.1173 24.2199C61.1173 28.1094 57.9643 31.2625 54.0747 31.2625C50.1852 31.2625 47.0321 28.1094 47.0321 24.2199C47.0321 20.3303 50.1852 17.1772 54.0747 17.1772C57.9643 17.1772 61.1173 20.3303 61.1173 24.2199Z" fill="#FF3B30"/>
<path d="M54.0746 27.0024H54.0794V27.0073H54.0746V27.0024Z" fill="white"/>
<path d="M54.0817 26.2205C54.5138 26.2205 54.8642 26.5708 54.8642 27.003V27.0101C54.8642 27.4421 54.5138 27.7925 54.0817 27.7926H54.0746C53.6425 27.7926 53.2922 27.4422 53.2921 27.0101V27.003C53.2921 26.5708 53.6425 26.2205 54.0746 26.2205H54.0817Z" fill="#FF3B30"/>
<path d="M54.8572 21.4374L54.8572 24.2194C54.8572 24.6516 54.5068 25.002 54.0747 25.002C53.6425 25.002 53.2922 24.6516 53.2922 24.2194L53.2922 21.4374C53.2922 21.0052 53.6425 20.6549 54.0747 20.6549C54.5068 20.6549 54.8572 21.0052 54.8572 21.4374Z" fill="#FF3B30"/>
</svg>
