<svg width="319" height="182" viewBox="0 0 319 182" fill="none" xmlns="http://www.w3.org/2000/svg">
<rect width="319" height="182" fill="#F5F5F5"/>
<path d="M152.5 70.625C152.5 71.9179 151.986 73.1579 151.072 74.0721C150.158 74.9864 148.918 75.5 147.625 75.5C146.332 75.5 145.092 74.9864 144.178 74.0721C143.264 73.1579 142.75 71.9179 142.75 70.625C142.75 69.3321 143.264 68.0921 144.178 67.1779C145.092 66.2636 146.332 65.75 147.625 65.75C148.918 65.75 150.158 66.2636 151.072 67.1779C151.986 68.0921 152.5 69.3321 152.5 70.625Z" fill="#E0E0E0"/>
<path d="M139.5 56C137.776 56 136.123 56.6848 134.904 57.9038C133.685 59.1228 133 60.7761 133 62.5V95C133 96.7239 133.685 98.3772 134.904 99.5962C136.123 100.815 137.776 101.5 139.5 101.5H178.5C180.224 101.5 181.877 100.815 183.096 99.5962C184.315 98.3772 185 96.7239 185 95V62.5C185 60.7761 184.315 59.1228 183.096 57.9038C181.877 56.6848 180.224 56 178.5 56H139.5ZM178.5 59.25C179.362 59.25 180.189 59.5924 180.798 60.2019C181.408 60.8114 181.75 61.638 181.75 62.5V83.625L169.475 77.2973C169.17 77.1446 168.825 77.0916 168.488 77.1459C168.152 77.2001 167.841 77.3588 167.599 77.5995L155.542 89.657L146.897 83.898C146.585 83.6902 146.21 83.5967 145.837 83.6335C145.464 83.6702 145.115 83.8348 144.849 84.0995L136.25 91.75V62.5C136.25 61.638 136.592 60.8114 137.202 60.2019C137.811 59.5924 138.638 59.25 139.5 59.25H178.5Z" fill="#E0E0E0"/>
<path d="M195 61.5C195 68.4036 189.404 74 182.5 74C175.596 74 170 68.4036 170 61.5C170 54.5964 175.596 49 182.5 49C189.404 49 195 54.5964 195 61.5Z" fill="#F5F5F5"/>
<path d="M190.25 61.7031C190.25 57.5351 186.871 54.1562 182.703 54.1562C178.535 54.1562 175.156 57.5351 175.156 61.7031C175.156 65.8711 178.535 69.25 182.703 69.25C186.871 69.25 190.25 65.8711 190.25 61.7031ZM192.406 61.7031C192.406 67.062 188.062 71.4062 182.703 71.4062C177.344 71.4062 173 67.062 173 61.7031C173 56.3442 177.344 52 182.703 52C188.062 52 192.406 56.3442 192.406 61.7031Z" fill="#FF3B30"/>
<path d="M182.703 65.5366H182.713V65.5462H182.703V65.5366Z" fill="white"/>
<path d="M182.713 64.4585C183.308 64.4586 183.791 64.9412 183.791 65.5366V65.5464C183.791 66.1417 183.308 66.6244 182.713 66.6245H182.703C182.108 66.6245 181.625 66.1417 181.625 65.5464V65.5366C181.625 64.9412 182.108 64.4585 182.703 64.4585H182.713Z" fill="#FF3B30"/>
<path d="M183.781 57.8701L183.781 61.7031C183.781 62.2986 183.299 62.7812 182.703 62.7812C182.108 62.7812 181.625 62.2986 181.625 61.7031L181.625 57.8701C181.625 57.2747 182.108 56.792 182.703 56.792C183.299 56.792 183.781 57.2747 183.781 57.8701Z" fill="#FF3B30"/>
<path d="M196.922 119.352H197.918V129.912H196.922V124.428H195.626V129.36H194.642V119.58H195.626V123.576H196.922V119.352ZM189.026 120.648H193.91V121.5H193.034V126.324C193.406 126.3 193.754 126.264 194.078 126.216L194.15 126.972C192.506 127.296 190.31 127.332 188.942 127.332L188.822 126.468L189.902 126.456V121.5H189.026V120.648ZM190.85 126.444L192.086 126.396V121.5H190.85V126.444Z" fill="#BDBDBD"/>
<path d="M186.074 119.352H187.106V124.788H186.074V119.352ZM180.266 125.316H187.106V127.896H181.298V128.964H187.466V129.792H180.29V127.128H186.086V126.144H180.266V125.316ZM181.166 119.64H182.21V120.444C182.21 121.884 183.266 123.192 184.85 123.708L184.334 124.512C183.11 124.092 182.174 123.24 181.694 122.136C181.238 123.324 180.278 124.26 179.018 124.716L178.502 123.888C180.11 123.336 181.166 121.944 181.166 120.444V119.64Z" fill="#BDBDBD"/>
<path d="M166.4 120.3H173.564V121.152H167.432V124.38H173.672V125.22H166.4V120.3ZM165.2 127.632H174.764V128.484H165.2V127.632Z" fill="#BDBDBD"/>
<path d="M154.712 127.764H158.96V125.832H155.9V122.52H162.08V120.948H155.876V120.108H163.112V123.348H156.92V124.992H163.352V125.832H159.992V127.764H164.276V128.616H154.712V127.764Z" fill="#BDBDBD"/>
<path d="M141.782 120.42H147.686V121.284H145.25V122.52C145.25 124.308 146.474 126.12 148.046 126.792L147.458 127.62C146.246 127.056 145.238 125.88 144.746 124.452C144.254 125.976 143.258 127.284 142.034 127.884L141.434 127.056C142.982 126.324 144.206 124.344 144.206 122.52V121.284H141.782V120.42ZM149.054 119.352H150.098V129.912H149.054V119.352Z" fill="#BDBDBD"/>
<path d="M131.558 120.36H136.43V127.272H131.558V120.36ZM135.434 121.2H132.578V126.432H135.434V121.2ZM138.578 119.328H139.622V129.924H138.578V119.328Z" fill="#BDBDBD"/>
<path d="M128.089 119.328H129.133V129.924H128.089V119.328ZM123.541 120.144C125.113 120.144 126.241 121.572 126.241 123.84C126.241 126.096 125.113 127.536 123.541 127.536C121.969 127.536 120.841 126.096 120.841 123.84C120.841 121.572 121.969 120.144 123.541 120.144ZM123.541 121.08C122.545 121.08 121.849 122.148 121.849 123.84C121.849 125.532 122.545 126.612 123.541 126.612C124.537 126.612 125.233 125.532 125.233 123.84C125.233 122.148 124.537 121.08 123.541 121.08Z" fill="#BDBDBD"/>
</svg>
