<svg width="25" height="24" viewBox="0 0 25 24" fill="none" xmlns="http://www.w3.org/2000/svg">
<path d="M12.25 13.5C18.025 13.5 22.75 17.25 22.75 20.25C22.75 20.8467 22.5129 21.419 22.091 21.841C21.669 22.2629 21.0967 22.5 20.5 22.5H4C3.40326 22.5 2.83097 22.2629 2.40901 21.841C1.98705 21.419 1.75 20.8467 1.75 20.25C1.75 17.25 6.475 13.5 12.25 13.5ZM12.25 1.5C13.6424 1.5 14.9777 2.05312 15.9623 3.03769C16.9469 4.02226 17.5 5.35761 17.5 6.75C17.5 8.14239 16.9469 9.47774 15.9623 10.4623C14.9777 11.4469 13.6424 12 12.25 12C10.8576 12 9.52226 11.4469 8.53769 10.4623C7.55312 9.47774 7 8.14239 7 6.75C7 5.35761 7.55312 4.02226 8.53769 3.03769C9.52226 2.05312 10.8576 1.5 12.25 1.5Z" fill="#E0E0E0"/>
</svg>
