<svg width="16" height="16" viewBox="0 0 16 16" fill="none" xmlns="http://www.w3.org/2000/svg">
<path d="M6.26696 1.14834C6.47589 0.94874 6.8 0.951474 7.00893 1.15107C7.74821 1.85924 8.44196 2.62209 9.09018 3.44784C9.38482 3.0541 9.71964 2.62483 10.0813 2.27485C10.2929 2.07251 10.6196 2.07251 10.8313 2.27758C11.758 3.17988 12.5429 4.37201 13.0946 5.50398C13.6384 6.61955 14 7.75973 14 8.5636C14 12.0525 11.3268 15 8 15C4.63571 15 2 12.0498 2 8.56086C2 7.51092 2.47679 6.22856 3.21607 4.95987C3.96339 3.67204 5.01875 2.32953 6.26696 1.14834ZM8.04554 12.3751C8.72321 12.3751 9.32321 12.1837 9.88839 11.8009C11.0161 10.9971 11.3188 9.38934 10.6411 8.12612C10.5205 7.88004 10.2125 7.86363 10.0384 8.07144L9.36339 8.87257C9.18661 9.08037 8.86786 9.0749 8.70179 8.8589C8.25982 8.28471 7.46964 7.25937 7.01964 6.67697C6.85089 6.45823 6.52946 6.4555 6.35804 6.67424C5.45268 7.83629 4.99732 8.56907 4.99732 9.39207C5 11.265 6.35536 12.3751 8.04554 12.3751Z" fill="#FF6937"/>
</svg>
