<svg width="34" height="34" viewBox="0 0 34 34" fill="none" xmlns="http://www.w3.org/2000/svg">
<path d="M30.8682 22.3184C32.7351 21.2784 33.9977 19.2874 33.9977 16.9988C33.9977 14.7103 32.5219 12.3983 30.4044 11.445C31.2289 9.27358 30.7675 6.72739 29.0177 4.97761C27.2679 3.22783 24.7217 2.76638 22.5503 3.59091C21.5993 1.47571 19.4701 0 16.9988 0C14.5276 0 12.3983 1.47571 11.445 3.59325C9.27358 2.76872 6.72739 3.23018 4.97761 4.97995C3.23018 6.72739 2.76638 9.27592 3.59091 11.4473C1.47571 12.3983 0 14.5252 0 16.9988C0 19.4724 1.47571 21.5993 3.59325 22.5527C2.76872 24.7241 3.23018 27.2703 4.97995 29.02C6.72739 30.7675 9.27592 31.2313 11.4473 30.4068C12.4007 32.5243 14.5276 34 17.0012 34C19.4748 34 21.2807 32.7374 22.3208 30.8705L34 34L30.8705 22.3208L30.8682 22.3184Z" fill="#E0E9FF"/>
</svg>
