<svg width="16" height="16" viewBox="0 0 16 16" fill="none" xmlns="http://www.w3.org/2000/svg">
<path d="M10.6875 13.875H12.125C12.5891 13.875 13.0342 13.6906 13.3624 13.3624C13.6906 13.0342 13.875 12.5891 13.875 12.125V10.6875M13.875 5.3125V3.875C13.875 3.41087 13.6906 2.96575 13.3624 2.63756C13.0342 2.30937 12.5891 2.125 12.125 2.125H10.6875M5.3125 13.875H3.875C3.41087 13.875 2.96575 13.6906 2.63756 13.3624C2.30937 13.0342 2.125 12.5891 2.125 12.125V10.6875M2.125 5.3125V3.875C2.125 3.41087 2.30937 2.96575 2.63756 2.63756C2.96575 2.30937 3.41087 2.125 3.875 2.125H5.3125" stroke="#424242" stroke-width="1.5" stroke-linecap="round" stroke-linejoin="round"/>
</svg>
